<svg xmlns="http://www.w3.org/2000/svg" xmlns:xlink="http://www.w3.org/1999/xlink" zoomAndPan="magnify" preserveAspectRatio="xMidYMid meet" version="1.0" viewBox="38.69 97.7 297.7 101.05"><defs><g/><clipPath id="501334a46a"><path d="M 97 97.726562 L 126 97.726562 L 126 126 L 97 126 Z M 97 97.726562 " clip-rule="nonzero"/></clipPath><clipPath id="5d3b7a8d29"><path d="M 118.257812 125.59375 C 117.417969 125.625 116.605469 125.484375 115.820312 125.175781 C 115.035156 124.867188 114.347656 124.410156 113.75 123.816406 C 108.898438 118.964844 104.019531 114.148438 99.242188 109.257812 C 96.675781 106.613281 96.898438 102.5625 99.554688 99.816406 C 99.859375 99.507812 100.183594 99.234375 100.539062 98.988281 C 100.894531 98.746094 101.265625 98.539062 101.660156 98.367188 C 102.054688 98.195312 102.460938 98.0625 102.878906 97.972656 C 103.296875 97.878906 103.722656 97.828125 104.152344 97.816406 C 104.582031 97.808594 105.007812 97.839844 105.429688 97.910156 C 105.851562 97.984375 106.265625 98.097656 106.664062 98.25 C 107.066406 98.402344 107.449219 98.589844 107.816406 98.820312 C 108.179688 99.046875 108.519531 99.304688 108.835938 99.597656 C 112.617188 103.199219 116.257812 106.988281 119.960938 110.695312 C 121.058594 111.800781 122.207031 112.863281 123.25 114.003906 C 123.722656 114.480469 124.113281 115.015625 124.421875 115.613281 C 124.730469 116.210938 124.941406 116.839844 125.058594 117.5 C 125.175781 118.164062 125.195312 118.828125 125.109375 119.496094 C 125.027344 120.160156 124.84375 120.800781 124.566406 121.414062 C 123.460938 124.191406 121.269531 125.582031 118.257812 125.59375 Z M 118.257812 125.59375 " clip-rule="nonzero"/></clipPath><linearGradient x1="84.137783" gradientTransform="matrix(0.658017, 0, 0, 0.661642, 72.294841, 97.726168)" y1="6.422484" x2="33.647778" gradientUnits="userSpaceOnUse" y2="36.442524" id="f1781bb754"><stop stop-opacity="1" stop-color="rgb(34.533691%, 26.222229%, 79.112244%)" offset="0"/><stop stop-opacity="1" stop-color="rgb(34.388733%, 26.115417%, 79.042053%)" offset="0.03125"/><stop stop-opacity="1" stop-color="rgb(34.100342%, 25.901794%, 78.903198%)" offset="0.0625"/><stop stop-opacity="1" stop-color="rgb(33.813477%, 25.688171%, 78.762817%)" offset="0.09375"/><stop stop-opacity="1" stop-color="rgb(33.525085%, 25.474548%, 78.623962%)" offset="0.125"/><stop stop-opacity="1" stop-color="rgb(33.236694%, 25.260925%, 78.485107%)" offset="0.15625"/><stop stop-opacity="1" stop-color="rgb(32.948303%, 25.048828%, 78.346252%)" offset="0.1875"/><stop stop-opacity="1" stop-color="rgb(32.659912%, 24.835205%, 78.207397%)" offset="0.21875"/><stop stop-opacity="1" stop-color="rgb(32.373047%, 24.621582%, 78.068542%)" offset="0.25"/><stop stop-opacity="1" stop-color="rgb(32.084656%, 24.407959%, 77.929688%)" offset="0.28125"/><stop stop-opacity="1" stop-color="rgb(31.796265%, 24.194336%, 77.790833%)" offset="0.3125"/><stop stop-opacity="1" stop-color="rgb(31.526184%, 23.99292%, 77.659607%)" offset="0.365778"/><stop stop-opacity="1" stop-color="rgb(31.399536%, 23.899841%, 77.598572%)" offset="0.375"/><stop stop-opacity="1" stop-color="rgb(31.399536%, 23.899841%, 77.598572%)" offset="0.5"/><stop stop-opacity="1" stop-color="rgb(31.399536%, 23.899841%, 77.598572%)" offset="0.634222"/><stop stop-opacity="1" stop-color="rgb(31.399536%, 23.899841%, 77.598572%)" offset="1"/></linearGradient><clipPath id="4bd58045c7"><path d="M 257 112 L 302 112 L 302 156.976562 L 257 156.976562 Z M 257 112 " clip-rule="nonzero"/></clipPath><clipPath id="1f4c22ce8f"><path d="M 279.523438 123.371094 C 276.609375 120.394531 273.90625 117.59375 271.160156 114.835938 C 268.910156 112.574219 266.152344 111.753906 263.164062 112.796875 C 257.527344 114.785156 255.992188 121.347656 260.097656 125.726562 C 262.515625 128.308594 265.046875 130.78125 267.585938 133.242188 C 268.417969 134.050781 268.4375 134.527344 267.585938 135.359375 C 265.0625 137.761719 262.621094 140.257812 260.199219 142.765625 C 259.882812 143.074219 259.59375 143.40625 259.332031 143.765625 C 259.070312 144.125 258.84375 144.5 258.644531 144.898438 C 258.449219 145.296875 258.285156 145.707031 258.160156 146.132812 C 258.03125 146.558594 257.941406 146.992188 257.886719 147.429688 C 257.832031 147.871094 257.816406 148.3125 257.835938 148.757812 C 257.859375 149.199219 257.914062 149.640625 258.011719 150.074219 C 258.105469 150.507812 258.234375 150.929688 258.402344 151.339844 C 258.566406 151.75 258.769531 152.144531 259 152.523438 C 261.71875 156.710938 267.015625 157.539062 270.707031 154.183594 C 273.40625 151.734375 275.910156 149.074219 278.4375 146.449219 C 279.289062 145.570312 279.851562 145.542969 280.714844 146.449219 C 283.117188 148.96875 285.570312 151.453125 288.085938 153.859375 C 290.058594 155.757812 292.453125 156.726562 295.210938 156.023438 C 301.378906 154.449219 303.410156 147.601562 299.074219 142.921875 C 296.738281 140.410156 294.316406 137.96875 291.835938 135.644531 C 290.644531 134.535156 290.914062 133.890625 291.929688 132.90625 C 294.558594 130.371094 297.191406 127.835938 299.585938 125.113281 C 301.757812 122.671875 302.042969 119.71875 300.601562 116.792969 C 299.101562 113.757812 296.535156 112.335938 293.125 112.460938 C 290.492188 112.554688 288.722656 114.089844 287.019531 115.820312 C 284.570312 118.238281 282.15625 120.699219 279.523438 123.371094 Z M 279.523438 123.371094 " clip-rule="nonzero"/></clipPath><linearGradient x1="356.730432" gradientTransform="matrix(0.658017, 0, 0, 0.661642, 72.294841, 97.726168)" y1="30.45048" x2="273.467469" gradientUnits="userSpaceOnUse" y2="79.959625" id="fa1e3bb85d"><stop stop-opacity="1" stop-color="rgb(59.999084%, 45.098877%, 91.398621%)" offset="0"/><stop stop-opacity="1" stop-color="rgb(59.999084%, 45.098877%, 91.398621%)" offset="0.360613"/><stop stop-opacity="1" stop-color="rgb(59.999084%, 45.098877%, 91.398621%)" offset="0.5"/><stop stop-opacity="1" stop-color="rgb(59.936523%, 45.053101%, 91.368103%)" offset="0.625"/><stop stop-opacity="1" stop-color="rgb(59.75647%, 44.918823%, 91.281128%)" offset="0.639387"/><stop stop-opacity="1" stop-color="rgb(59.637451%, 44.831848%, 91.22467%)" offset="0.640625"/><stop stop-opacity="1" stop-color="rgb(59.518433%, 44.743347%, 91.166687%)" offset="0.65625"/><stop stop-opacity="1" stop-color="rgb(59.281921%, 44.566345%, 91.052246%)" offset="0.671875"/><stop stop-opacity="1" stop-color="rgb(59.043884%, 44.390869%, 90.937805%)" offset="0.6875"/><stop stop-opacity="1" stop-color="rgb(58.805847%, 44.213867%, 90.823364%)" offset="0.703125"/><stop stop-opacity="1" stop-color="rgb(58.56781%, 44.038391%, 90.708923%)" offset="0.71875"/><stop stop-opacity="1" stop-color="rgb(58.331299%, 43.862915%, 90.594482%)" offset="0.734375"/><stop stop-opacity="1" stop-color="rgb(58.093262%, 43.685913%, 90.478516%)" offset="0.75"/><stop stop-opacity="1" stop-color="rgb(57.855225%, 43.510437%, 90.364075%)" offset="0.765625"/><stop stop-opacity="1" stop-color="rgb(57.618713%, 43.333435%, 90.249634%)" offset="0.78125"/><stop stop-opacity="1" stop-color="rgb(57.380676%, 43.157959%, 90.135193%)" offset="0.796875"/><stop stop-opacity="1" stop-color="rgb(57.142639%, 42.982483%, 90.020752%)" offset="0.8125"/><stop stop-opacity="1" stop-color="rgb(56.906128%, 42.805481%, 89.906311%)" offset="0.828125"/><stop stop-opacity="1" stop-color="rgb(56.668091%, 42.630005%, 89.79187%)" offset="0.84375"/><stop stop-opacity="1" stop-color="rgb(56.430054%, 42.453003%, 89.677429%)" offset="0.859375"/><stop stop-opacity="1" stop-color="rgb(56.193542%, 42.277527%, 89.561462%)" offset="0.875"/><stop stop-opacity="1" stop-color="rgb(55.955505%, 42.102051%, 89.447021%)" offset="0.890625"/><stop stop-opacity="1" stop-color="rgb(55.717468%, 41.925049%, 89.332581%)" offset="0.90625"/><stop stop-opacity="1" stop-color="rgb(55.480957%, 41.749573%, 89.21814%)" offset="0.921875"/><stop stop-opacity="1" stop-color="rgb(55.24292%, 41.574097%, 89.103699%)" offset="0.9375"/><stop stop-opacity="1" stop-color="rgb(55.004883%, 41.397095%, 88.989258%)" offset="0.953125"/><stop stop-opacity="1" stop-color="rgb(54.768372%, 41.221619%, 88.874817%)" offset="0.96875"/><stop stop-opacity="1" stop-color="rgb(54.530334%, 41.044617%, 88.760376%)" offset="0.984375"/><stop stop-opacity="1" stop-color="rgb(54.292297%, 40.869141%, 88.645935%)" offset="1"/></linearGradient><clipPath id="26c0ecaea5"><path d="M 273 97.726562 L 286 97.726562 L 286 110 L 273 110 Z M 273 97.726562 " clip-rule="nonzero"/></clipPath><clipPath id="c78f7d6fcd"><path d="M 285.269531 103.628906 C 285.285156 103.253906 285.261719 102.886719 285.199219 102.519531 C 285.140625 102.148438 285.046875 101.792969 284.914062 101.445312 C 284.78125 101.09375 284.617188 100.765625 284.417969 100.449219 C 284.21875 100.132812 283.992188 99.84375 283.734375 99.574219 C 283.476562 99.304688 283.195312 99.066406 282.890625 98.855469 C 282.585938 98.644531 282.261719 98.464844 281.917969 98.320312 C 281.578125 98.175781 281.226562 98.066406 280.863281 97.992188 C 280.5 97.917969 280.132812 97.882812 279.761719 97.886719 C 279.382812 97.867188 279.011719 97.890625 278.636719 97.949219 C 278.265625 98.007812 277.902344 98.105469 277.550781 98.238281 C 277.195312 98.371094 276.859375 98.542969 276.542969 98.742188 C 276.222656 98.945312 275.929688 99.179688 275.65625 99.441406 C 275.386719 99.707031 275.144531 99.992188 274.929688 100.304688 C 274.714844 100.621094 274.539062 100.949219 274.390625 101.300781 C 274.246094 101.648438 274.136719 102.011719 274.0625 102.382812 C 273.988281 102.753906 273.953125 103.128906 273.957031 103.507812 C 273.941406 103.890625 273.960938 104.269531 274.023438 104.644531 C 274.082031 105.023438 274.179688 105.390625 274.3125 105.746094 C 274.445312 106.101562 274.609375 106.445312 274.8125 106.765625 C 275.011719 107.089844 275.242188 107.390625 275.503906 107.667969 C 275.765625 107.945312 276.050781 108.191406 276.363281 108.410156 C 276.671875 108.628906 277 108.816406 277.347656 108.96875 C 277.695312 109.121094 278.054688 109.238281 278.425781 109.316406 C 278.796875 109.398438 279.171875 109.4375 279.550781 109.441406 C 279.929688 109.445312 280.308594 109.414062 280.679688 109.339844 C 281.050781 109.269531 281.414062 109.160156 281.765625 109.015625 C 282.113281 108.871094 282.449219 108.691406 282.761719 108.480469 C 283.078125 108.265625 283.367188 108.023438 283.636719 107.753906 C 283.902344 107.480469 284.140625 107.1875 284.347656 106.867188 C 284.554688 106.546875 284.726562 106.210938 284.867188 105.855469 C 285.007812 105.503906 285.113281 105.136719 285.179688 104.761719 C 285.246094 104.386719 285.277344 104.007812 285.269531 103.628906 Z M 285.269531 103.628906 " clip-rule="nonzero"/></clipPath><clipPath id="eb46465128"><path d="M 225 113 L 253 113 L 253 142 L 225 142 Z M 225 113 " clip-rule="nonzero"/></clipPath><clipPath id="d16f886d67"><path d="M 252.980469 134.421875 C 252.957031 135.066406 252.847656 135.691406 252.648438 136.304688 C 252.453125 136.917969 252.175781 137.492188 251.816406 138.027344 C 251.457031 138.558594 251.03125 139.035156 250.542969 139.449219 C 250.050781 139.863281 249.511719 140.199219 248.925781 140.460938 C 248.3125 140.753906 247.664062 140.945312 246.992188 141.039062 C 246.316406 141.128906 245.644531 141.117188 244.972656 140.996094 C 244.300781 140.878906 243.664062 140.660156 243.0625 140.34375 C 242.457031 140.027344 241.917969 139.625 241.4375 139.136719 C 236.71875 134.445312 232.023438 129.726562 227.355469 124.984375 C 227.027344 124.667969 226.734375 124.320312 226.476562 123.945312 C 226.21875 123.566406 226 123.167969 225.820312 122.746094 C 225.640625 122.324219 225.507812 121.890625 225.417969 121.441406 C 225.324219 120.992188 225.28125 120.539062 225.28125 120.078125 C 225.28125 119.621094 225.324219 119.167969 225.417969 118.71875 C 225.507812 118.269531 225.644531 117.835938 225.820312 117.414062 C 226 116.992188 226.21875 116.59375 226.476562 116.214844 C 226.734375 115.839844 227.027344 115.492188 227.355469 115.171875 C 230.046875 112.472656 234.320312 112.574219 237.121094 115.390625 C 241.554688 119.851562 246 124.3125 250.445312 128.769531 C 251.246094 129.488281 251.871094 130.339844 252.3125 131.324219 C 252.753906 132.308594 252.976562 133.339844 252.980469 134.421875 Z M 252.980469 134.421875 " clip-rule="nonzero"/></clipPath><linearGradient x1="278.807955" gradientTransform="matrix(0.658017, 0, 0, 0.661642, 72.294841, 97.726168)" y1="29.384064" x2="228.682192" gradientUnits="userSpaceOnUse" y2="59.187536" id="8fda82192f"><stop stop-opacity="1" stop-color="rgb(58.950806%, 44.322205%, 90.893555%)" offset="0"/><stop stop-opacity="1" stop-color="rgb(58.807373%, 44.215393%, 90.823364%)" offset="0.03125"/><stop stop-opacity="1" stop-color="rgb(58.522034%, 44.003296%, 90.686035%)" offset="0.0625"/><stop stop-opacity="1" stop-color="rgb(58.235168%, 43.791199%, 90.548706%)" offset="0.09375"/><stop stop-opacity="1" stop-color="rgb(57.949829%, 43.579102%, 90.409851%)" offset="0.125"/><stop stop-opacity="1" stop-color="rgb(57.662964%, 43.367004%, 90.272522%)" offset="0.15625"/><stop stop-opacity="1" stop-color="rgb(57.377625%, 43.154907%, 90.133667%)" offset="0.1875"/><stop stop-opacity="1" stop-color="rgb(57.092285%, 42.94281%, 89.996338%)" offset="0.21875"/><stop stop-opacity="1" stop-color="rgb(56.80542%, 42.732239%, 89.857483%)" offset="0.25"/><stop stop-opacity="1" stop-color="rgb(56.520081%, 42.520142%, 89.720154%)" offset="0.28125"/><stop stop-opacity="1" stop-color="rgb(56.233215%, 42.308044%, 89.582825%)" offset="0.3125"/><stop stop-opacity="1" stop-color="rgb(55.947876%, 42.095947%, 89.44397%)" offset="0.34375"/><stop stop-opacity="1" stop-color="rgb(55.661011%, 41.88385%, 89.306641%)" offset="0.375"/><stop stop-opacity="1" stop-color="rgb(55.375671%, 41.671753%, 89.167786%)" offset="0.379545"/><stop stop-opacity="1" stop-color="rgb(55.233765%, 41.566467%, 89.099121%)" offset="0.40625"/><stop stop-opacity="1" stop-color="rgb(55.090332%, 41.459656%, 89.030457%)" offset="0.4375"/><stop stop-opacity="1" stop-color="rgb(54.803467%, 41.247559%, 88.891602%)" offset="0.46875"/><stop stop-opacity="1" stop-color="rgb(54.518127%, 41.035461%, 88.754272%)" offset="0.5"/><stop stop-opacity="1" stop-color="rgb(54.231262%, 40.823364%, 88.615417%)" offset="0.53125"/><stop stop-opacity="1" stop-color="rgb(53.945923%, 40.611267%, 88.478088%)" offset="0.5625"/><stop stop-opacity="1" stop-color="rgb(53.659058%, 40.39917%, 88.340759%)" offset="0.59375"/><stop stop-opacity="1" stop-color="rgb(53.373718%, 40.187073%, 88.201904%)" offset="0.620455"/><stop stop-opacity="1" stop-color="rgb(53.231812%, 40.081787%, 88.13324%)" offset="0.625"/><stop stop-opacity="1" stop-color="rgb(53.088379%, 39.974976%, 88.064575%)" offset="0.65625"/><stop stop-opacity="1" stop-color="rgb(52.801514%, 39.762878%, 87.92572%)" offset="0.6875"/><stop stop-opacity="1" stop-color="rgb(52.516174%, 39.552307%, 87.788391%)" offset="0.71875"/><stop stop-opacity="1" stop-color="rgb(52.229309%, 39.34021%, 87.649536%)" offset="0.75"/><stop stop-opacity="1" stop-color="rgb(51.94397%, 39.128113%, 87.512207%)" offset="0.78125"/><stop stop-opacity="1" stop-color="rgb(51.657104%, 38.916016%, 87.374878%)" offset="0.8125"/><stop stop-opacity="1" stop-color="rgb(51.371765%, 38.703918%, 87.236023%)" offset="0.84375"/><stop stop-opacity="1" stop-color="rgb(51.086426%, 38.491821%, 87.098694%)" offset="0.875"/><stop stop-opacity="1" stop-color="rgb(50.799561%, 38.279724%, 86.959839%)" offset="0.90625"/><stop stop-opacity="1" stop-color="rgb(50.514221%, 38.067627%, 86.82251%)" offset="0.9375"/><stop stop-opacity="1" stop-color="rgb(50.227356%, 37.85553%, 86.683655%)" offset="0.96875"/><stop stop-opacity="1" stop-color="rgb(49.942017%, 37.643433%, 86.546326%)" offset="1"/></linearGradient><clipPath id="200642eff7"><path d="M 198 145 L 210 145 L 210 156.976562 L 198 156.976562 Z M 198 145 " clip-rule="nonzero"/></clipPath><clipPath id="160f3e5930"><path d="M 204.082031 145.496094 C 204.453125 145.507812 204.816406 145.554688 205.179688 145.636719 C 205.539062 145.71875 205.890625 145.832031 206.230469 145.984375 C 206.570312 146.132812 206.890625 146.3125 207.199219 146.523438 C 207.503906 146.730469 207.785156 146.96875 208.046875 147.234375 C 208.304688 147.5 208.539062 147.785156 208.746094 148.097656 C 208.949219 148.40625 209.125 148.730469 209.269531 149.074219 C 209.414062 149.417969 209.523438 149.769531 209.601562 150.136719 C 209.679688 150.5 209.722656 150.867188 209.726562 151.238281 C 209.726562 151.613281 209.691406 151.980469 209.617188 152.347656 C 209.546875 152.710938 209.4375 153.066406 209.296875 153.410156 C 209.15625 153.753906 208.984375 154.082031 208.777344 154.390625 C 208.574219 154.703125 208.339844 154.992188 208.082031 155.253906 C 207.820312 155.519531 207.539062 155.757812 207.230469 155.96875 C 206.925781 156.175781 206.601562 156.355469 206.261719 156.5 C 205.921875 156.648438 205.570312 156.761719 205.207031 156.835938 C 204.84375 156.914062 204.480469 156.957031 204.109375 156.964844 C 203.730469 156.964844 203.359375 156.929688 202.988281 156.859375 C 202.617188 156.789062 202.257812 156.683594 201.90625 156.542969 C 201.558594 156.402344 201.226562 156.226562 200.910156 156.019531 C 200.59375 155.8125 200.300781 155.578125 200.03125 155.3125 C 199.761719 155.050781 199.519531 154.761719 199.304688 154.449219 C 199.089844 154.136719 198.90625 153.808594 198.757812 153.460938 C 198.605469 153.113281 198.492188 152.753906 198.410156 152.382812 C 198.332031 152.011719 198.285156 151.636719 198.277344 151.257812 C 198.289062 150.882812 198.339844 150.507812 198.421875 150.140625 C 198.503906 149.769531 198.621094 149.414062 198.769531 149.066406 C 198.921875 148.71875 199.101562 148.390625 199.316406 148.078125 C 199.527344 147.769531 199.769531 147.480469 200.035156 147.214844 C 200.304688 146.949219 200.59375 146.710938 200.90625 146.5 C 201.21875 146.289062 201.550781 146.109375 201.894531 145.964844 C 202.242188 145.816406 202.597656 145.703125 202.96875 145.625 C 203.335938 145.546875 203.707031 145.503906 204.082031 145.496094 Z M 204.082031 145.496094 " clip-rule="nonzero"/></clipPath><linearGradient x1="210.421632" gradientTransform="matrix(0.658017, 0, 0, 0.661642, 72.294841, 97.726168)" y1="74.826286" x2="189.95195" gradientUnits="userSpaceOnUse" y2="86.997802" id="16843b1876"><stop stop-opacity="1" stop-color="rgb(46.081543%, 34.78241%, 84.683228%)" offset="0"/><stop stop-opacity="1" stop-color="rgb(45.96405%, 34.695435%, 84.62677%)" offset="0.0625"/><stop stop-opacity="1" stop-color="rgb(45.730591%, 34.521484%, 84.513855%)" offset="0.125"/><stop stop-opacity="1" stop-color="rgb(45.497131%, 34.34906%, 84.40094%)" offset="0.1875"/><stop stop-opacity="1" stop-color="rgb(45.262146%, 34.176636%, 84.289551%)" offset="0.25"/><stop stop-opacity="1" stop-color="rgb(45.028687%, 34.002686%, 84.176636%)" offset="0.3125"/><stop stop-opacity="1" stop-color="rgb(44.795227%, 33.830261%, 84.063721%)" offset="0.372"/><stop stop-opacity="1" stop-color="rgb(44.67926%, 33.743286%, 84.007263%)" offset="0.375"/><stop stop-opacity="1" stop-color="rgb(44.561768%, 33.656311%, 83.950806%)" offset="0.4375"/><stop stop-opacity="1" stop-color="rgb(44.328308%, 33.483887%, 83.837891%)" offset="0.5"/><stop stop-opacity="1" stop-color="rgb(44.094849%, 33.309937%, 83.724976%)" offset="0.5625"/><stop stop-opacity="1" stop-color="rgb(43.861389%, 33.137512%, 83.612061%)" offset="0.625"/><stop stop-opacity="1" stop-color="rgb(43.62793%, 32.963562%, 83.500671%)" offset="0.628"/><stop stop-opacity="1" stop-color="rgb(43.511963%, 32.878113%, 83.444214%)" offset="0.6875"/><stop stop-opacity="1" stop-color="rgb(43.39447%, 32.791138%, 83.387756%)" offset="0.75"/><stop stop-opacity="1" stop-color="rgb(43.161011%, 32.617188%, 83.274841%)" offset="0.8125"/><stop stop-opacity="1" stop-color="rgb(42.927551%, 32.444763%, 83.161926%)" offset="0.875"/><stop stop-opacity="1" stop-color="rgb(42.694092%, 32.270813%, 83.049011%)" offset="0.9375"/><stop stop-opacity="1" stop-color="rgb(42.459106%, 32.098389%, 82.936096%)" offset="1"/></linearGradient><clipPath id="00287347b3"><path d="M 226 145 L 238 145 L 238 156.976562 L 226 156.976562 Z M 226 145 " clip-rule="nonzero"/></clipPath><clipPath id="50eb49efea"><path d="M 237.773438 151.238281 C 237.773438 151.613281 237.738281 151.980469 237.667969 152.34375 C 237.59375 152.710938 237.488281 153.066406 237.351562 153.410156 C 237.210938 153.753906 237.039062 154.082031 236.835938 154.390625 C 236.632812 154.703125 236.402344 154.992188 236.140625 155.257812 C 235.882812 155.523438 235.601562 155.761719 235.296875 155.972656 C 234.992188 156.179688 234.667969 156.359375 234.328125 156.507812 C 233.988281 156.65625 233.636719 156.769531 233.277344 156.847656 C 232.914062 156.925781 232.550781 156.96875 232.179688 156.976562 C 231.796875 156.992188 231.417969 156.972656 231.039062 156.914062 C 230.660156 156.851562 230.292969 156.757812 229.933594 156.621094 C 229.574219 156.488281 229.230469 156.320312 228.90625 156.117188 C 228.582031 155.914062 228.277344 155.679688 228 155.414062 C 227.722656 155.152344 227.472656 154.863281 227.25 154.546875 C 227.03125 154.234375 226.84375 153.898438 226.6875 153.546875 C 226.535156 153.195312 226.417969 152.828125 226.335938 152.453125 C 226.253906 152.078125 226.210938 151.695312 226.207031 151.3125 C 226.199219 150.925781 226.234375 150.546875 226.304688 150.167969 C 226.375 149.789062 226.484375 149.421875 226.628906 149.0625 C 226.773438 148.707031 226.949219 148.367188 227.164062 148.046875 C 227.375 147.726562 227.617188 147.429688 227.886719 147.160156 C 228.160156 146.886719 228.453125 146.644531 228.773438 146.433594 C 229.09375 146.222656 229.429688 146.042969 229.785156 145.898438 C 230.140625 145.753906 230.507812 145.648438 230.882812 145.578125 C 231.257812 145.507812 231.640625 145.476562 232.023438 145.484375 C 232.398438 145.480469 232.773438 145.515625 233.144531 145.585938 C 233.515625 145.65625 233.875 145.761719 234.226562 145.90625 C 234.574219 146.050781 234.90625 146.226562 235.222656 146.4375 C 235.535156 146.644531 235.828125 146.882812 236.09375 147.152344 C 236.363281 147.417969 236.601562 147.710938 236.8125 148.027344 C 237.019531 148.34375 237.199219 148.675781 237.34375 149.027344 C 237.484375 149.378906 237.59375 149.738281 237.667969 150.113281 C 237.738281 150.484375 237.773438 150.859375 237.773438 151.238281 Z M 237.773438 151.238281 " clip-rule="nonzero"/></clipPath><linearGradient x1="253.054891" gradientTransform="matrix(0.658017, 0, 0, 0.661642, 72.294841, 97.726168)" y1="74.81408" x2="232.425272" gradientUnits="userSpaceOnUse" y2="87.080696" id="8bcc7ca465"><stop stop-opacity="1" stop-color="rgb(51.832581%, 39.045715%, 87.458801%)" offset="0"/><stop stop-opacity="1" stop-color="rgb(51.715088%, 38.95874%, 87.402344%)" offset="0.0625"/><stop stop-opacity="1" stop-color="rgb(51.480103%, 38.783264%, 87.287903%)" offset="0.125"/><stop stop-opacity="1" stop-color="rgb(51.245117%, 38.609314%, 87.174988%)" offset="0.1875"/><stop stop-opacity="1" stop-color="rgb(51.008606%, 38.435364%, 87.060547%)" offset="0.25"/><stop stop-opacity="1" stop-color="rgb(50.773621%, 38.259888%, 86.947632%)" offset="0.3125"/><stop stop-opacity="1" stop-color="rgb(50.538635%, 38.085938%, 86.833191%)" offset="0.370095"/><stop stop-opacity="1" stop-color="rgb(50.421143%, 37.998962%, 86.776733%)" offset="0.375"/><stop stop-opacity="1" stop-color="rgb(50.302124%, 37.911987%, 86.720276%)" offset="0.4375"/><stop stop-opacity="1" stop-color="rgb(50.067139%, 37.736511%, 86.607361%)" offset="0.5"/><stop stop-opacity="1" stop-color="rgb(49.832153%, 37.562561%, 86.49292%)" offset="0.5625"/><stop stop-opacity="1" stop-color="rgb(49.597168%, 37.388611%, 86.380005%)" offset="0.625"/><stop stop-opacity="1" stop-color="rgb(49.360657%, 37.213135%, 86.265564%)" offset="0.629905"/><stop stop-opacity="1" stop-color="rgb(49.243164%, 37.12616%, 86.209106%)" offset="0.6875"/><stop stop-opacity="1" stop-color="rgb(49.125671%, 37.039185%, 86.152649%)" offset="0.75"/><stop stop-opacity="1" stop-color="rgb(48.890686%, 36.863708%, 86.038208%)" offset="0.8125"/><stop stop-opacity="1" stop-color="rgb(48.654175%, 36.689758%, 85.925293%)" offset="0.875"/><stop stop-opacity="1" stop-color="rgb(48.419189%, 36.515808%, 85.810852%)" offset="0.9375"/><stop stop-opacity="1" stop-color="rgb(48.184204%, 36.340332%, 85.697937%)" offset="1"/></linearGradient><clipPath id="0f46feec61"><path d="M 240 97.726562 L 252 97.726562 L 252 110 L 240 110 Z M 240 97.726562 " clip-rule="nonzero"/></clipPath><clipPath id="2e34ed748a"><path d="M 251.800781 103.742188 C 251.792969 104.121094 251.746094 104.496094 251.664062 104.863281 C 251.582031 105.234375 251.460938 105.59375 251.308594 105.9375 C 251.152344 106.285156 250.964844 106.613281 250.746094 106.921875 C 250.527344 107.230469 250.28125 107.511719 250.003906 107.773438 C 249.726562 108.03125 249.429688 108.261719 249.109375 108.457031 C 248.785156 108.65625 248.449219 108.824219 248.09375 108.953125 C 247.742188 109.085938 247.378906 109.179688 247.003906 109.238281 C 246.632812 109.296875 246.257812 109.316406 245.878906 109.296875 C 245.511719 109.277344 245.148438 109.226562 244.789062 109.132812 C 244.429688 109.042969 244.082031 108.921875 243.746094 108.761719 C 243.414062 108.605469 243.097656 108.417969 242.796875 108.199219 C 242.5 107.980469 242.226562 107.734375 241.972656 107.460938 C 241.722656 107.1875 241.5 106.894531 241.304688 106.578125 C 241.109375 106.261719 240.949219 105.929688 240.816406 105.582031 C 240.6875 105.234375 240.589844 104.875 240.53125 104.511719 C 240.46875 104.144531 240.441406 103.773438 240.449219 103.402344 C 240.46875 103.03125 240.519531 102.667969 240.609375 102.308594 C 240.695312 101.949219 240.816406 101.601562 240.972656 101.265625 C 241.128906 100.929688 241.3125 100.609375 241.53125 100.3125 C 241.746094 100.011719 241.992188 99.734375 242.261719 99.484375 C 242.53125 99.234375 242.824219 99.007812 243.136719 98.816406 C 243.449219 98.621094 243.78125 98.457031 244.125 98.328125 C 244.46875 98.199219 244.824219 98.101562 245.1875 98.042969 C 245.550781 97.980469 245.917969 97.957031 246.285156 97.964844 C 246.652344 97.976562 247.015625 98.023438 247.375 98.105469 C 247.734375 98.1875 248.082031 98.304688 248.421875 98.457031 C 248.757812 98.605469 249.074219 98.789062 249.378906 99 C 249.679688 99.214844 249.957031 99.453125 250.210938 99.722656 C 250.46875 99.988281 250.695312 100.277344 250.894531 100.589844 C 251.089844 100.902344 251.257812 101.230469 251.394531 101.574219 C 251.527344 101.917969 251.628906 102.273438 251.695312 102.636719 C 251.761719 103.003906 251.792969 103.371094 251.789062 103.742188 Z M 251.800781 103.742188 " clip-rule="nonzero"/></clipPath><linearGradient x1="274.278143" gradientTransform="matrix(0.658017, 0, 0, 0.661642, 72.294841, 97.726168)" y1="2.833043" x2="253.980946" gradientUnits="userSpaceOnUse" y2="14.901228" id="e02fd68a18"><stop stop-opacity="1" stop-color="rgb(59.999084%, 45.098877%, 91.398621%)" offset="0"/><stop stop-opacity="1" stop-color="rgb(59.999084%, 45.098877%, 91.398621%)" offset="0.125"/><stop stop-opacity="1" stop-color="rgb(59.886169%, 45.014954%, 91.343689%)" offset="0.1875"/><stop stop-opacity="1" stop-color="rgb(59.657288%, 44.845581%, 91.233826%)" offset="0.25"/><stop stop-opacity="1" stop-color="rgb(59.425354%, 44.673157%, 91.122437%)" offset="0.3125"/><stop stop-opacity="1" stop-color="rgb(59.19342%, 44.502258%, 91.009521%)" offset="0.371582"/><stop stop-opacity="1" stop-color="rgb(59.078979%, 44.416809%, 90.95459%)" offset="0.375"/><stop stop-opacity="1" stop-color="rgb(58.963013%, 44.329834%, 90.898132%)" offset="0.4375"/><stop stop-opacity="1" stop-color="rgb(58.731079%, 44.158936%, 90.786743%)" offset="0.5"/><stop stop-opacity="1" stop-color="rgb(58.499146%, 43.986511%, 90.675354%)" offset="0.5625"/><stop stop-opacity="1" stop-color="rgb(58.267212%, 43.815613%, 90.563965%)" offset="0.625"/><stop stop-opacity="1" stop-color="rgb(58.036804%, 43.643188%, 90.45105%)" offset="0.628418"/><stop stop-opacity="1" stop-color="rgb(57.920837%, 43.557739%, 90.396118%)" offset="0.6875"/><stop stop-opacity="1" stop-color="rgb(57.804871%, 43.47229%, 90.339661%)" offset="0.75"/><stop stop-opacity="1" stop-color="rgb(57.572937%, 43.299866%, 90.228271%)" offset="0.8125"/><stop stop-opacity="1" stop-color="rgb(57.341003%, 43.128967%, 90.116882%)" offset="0.875"/><stop stop-opacity="1" stop-color="rgb(57.10907%, 42.956543%, 90.003967%)" offset="0.9375"/><stop stop-opacity="1" stop-color="rgb(56.878662%, 42.785645%, 89.892578%)" offset="1"/></linearGradient><clipPath id="96b4c8bb27"><path d="M 212 130 L 225 130 L 225 142 L 212 142 Z M 212 130 " clip-rule="nonzero"/></clipPath><clipPath id="4c2cd662b0"><path d="M 218.269531 141.652344 C 217.898438 141.644531 217.53125 141.601562 217.167969 141.519531 C 216.808594 141.4375 216.457031 141.324219 216.117188 141.171875 C 215.777344 141.023438 215.453125 140.84375 215.148438 140.628906 C 214.84375 140.414062 214.5625 140.171875 214.308594 139.90625 C 214.050781 139.636719 213.820312 139.34375 213.621094 139.03125 C 213.421875 138.714844 213.25 138.386719 213.117188 138.039062 C 212.980469 137.691406 212.878906 137.332031 212.8125 136.964844 C 212.746094 136.597656 212.71875 136.230469 212.722656 135.855469 C 212.730469 135.484375 212.769531 135.113281 212.851562 134.75 C 212.929688 134.382812 213.039062 134.03125 213.1875 133.6875 C 213.335938 133.34375 213.515625 133.019531 213.722656 132.714844 C 213.933594 132.40625 214.171875 132.121094 214.441406 131.863281 C 214.707031 131.601562 214.992188 131.371094 215.304688 131.167969 C 215.617188 130.964844 215.945312 130.792969 216.289062 130.65625 C 216.632812 130.515625 216.988281 130.414062 217.351562 130.34375 C 217.71875 130.277344 218.085938 130.242188 218.457031 130.246094 C 218.828125 130.25 219.195312 130.292969 219.558594 130.367188 C 219.921875 130.445312 220.273438 130.554688 220.617188 130.703125 C 220.957031 130.847656 221.28125 131.027344 221.589844 131.238281 C 221.894531 131.445312 222.179688 131.683594 222.4375 131.953125 C 222.699219 132.21875 222.929688 132.507812 223.132812 132.816406 C 223.339844 133.128906 223.511719 133.457031 223.648438 133.804688 C 223.789062 134.148438 223.894531 134.507812 223.964844 134.871094 C 224.035156 135.238281 224.070312 135.609375 224.066406 135.980469 C 224.066406 136.363281 224.03125 136.738281 223.957031 137.109375 C 223.882812 137.480469 223.769531 137.839844 223.625 138.191406 C 223.476562 138.539062 223.296875 138.871094 223.085938 139.183594 C 222.875 139.496094 222.632812 139.785156 222.363281 140.050781 C 222.089844 140.316406 221.796875 140.550781 221.480469 140.753906 C 221.164062 140.960938 220.828125 141.132812 220.476562 141.269531 C 220.125 141.40625 219.765625 141.507812 219.390625 141.574219 C 219.019531 141.636719 218.644531 141.664062 218.269531 141.652344 Z M 218.269531 141.652344 " clip-rule="nonzero"/></clipPath><linearGradient x1="232.177508" gradientTransform="matrix(0.658017, 0, 0, 0.661642, 72.294841, 97.726168)" y1="51.710173" x2="211.849939" gradientUnits="userSpaceOnUse" y2="63.796416" id="c7e501e5b3"><stop stop-opacity="1" stop-color="rgb(50.869751%, 38.331604%, 86.994934%)" offset="0"/><stop stop-opacity="1" stop-color="rgb(50.753784%, 38.246155%, 86.938477%)" offset="0.0625"/><stop stop-opacity="1" stop-color="rgb(50.521851%, 38.07373%, 86.825562%)" offset="0.125"/><stop stop-opacity="1" stop-color="rgb(50.289917%, 37.901306%, 86.714172%)" offset="0.1875"/><stop stop-opacity="1" stop-color="rgb(50.057983%, 37.730408%, 86.602783%)" offset="0.25"/><stop stop-opacity="1" stop-color="rgb(49.82605%, 37.557983%, 86.489868%)" offset="0.3125"/><stop stop-opacity="1" stop-color="rgb(49.594116%, 37.385559%, 86.378479%)" offset="0.372997"/><stop stop-opacity="1" stop-color="rgb(49.478149%, 37.30011%, 86.322021%)" offset="0.375"/><stop stop-opacity="1" stop-color="rgb(49.362183%, 37.214661%, 86.265564%)" offset="0.4375"/><stop stop-opacity="1" stop-color="rgb(49.130249%, 37.042236%, 86.154175%)" offset="0.5"/><stop stop-opacity="1" stop-color="rgb(48.898315%, 36.869812%, 86.042786%)" offset="0.5625"/><stop stop-opacity="1" stop-color="rgb(48.666382%, 36.698914%, 85.929871%)" offset="0.625"/><stop stop-opacity="1" stop-color="rgb(48.434448%, 36.526489%, 85.818481%)" offset="0.627003"/><stop stop-opacity="1" stop-color="rgb(48.318481%, 36.44104%, 85.76355%)" offset="0.6875"/><stop stop-opacity="1" stop-color="rgb(48.202515%, 36.354065%, 85.707092%)" offset="0.75"/><stop stop-opacity="1" stop-color="rgb(47.970581%, 36.183167%, 85.594177%)" offset="0.8125"/><stop stop-opacity="1" stop-color="rgb(47.738647%, 36.010742%, 85.482788%)" offset="0.875"/><stop stop-opacity="1" stop-color="rgb(47.506714%, 35.838318%, 85.371399%)" offset="0.9375"/><stop stop-opacity="1" stop-color="rgb(47.27478%, 35.667419%, 85.258484%)" offset="1"/></linearGradient><clipPath id="24cac08077"><path d="M 198 114 L 209 114 L 209 125 L 198 125 Z M 198 114 " clip-rule="nonzero"/></clipPath><clipPath id="8d820ae043"><path d="M 198.574219 119.621094 C 198.570312 119.308594 198.59375 118.996094 198.652344 118.691406 C 198.707031 118.382812 198.792969 118.082031 198.90625 117.792969 C 199.019531 117.5 199.164062 117.226562 199.332031 116.960938 C 199.5 116.699219 199.691406 116.457031 199.910156 116.230469 C 200.125 116.007812 200.359375 115.804688 200.617188 115.628906 C 200.871094 115.449219 201.140625 115.296875 201.429688 115.171875 C 201.714844 115.050781 202.007812 114.953125 202.3125 114.886719 C 202.617188 114.820312 202.921875 114.785156 203.234375 114.78125 C 203.542969 114.777344 203.851562 114.800781 204.160156 114.855469 C 204.464844 114.914062 204.761719 115 205.050781 115.113281 C 205.339844 115.226562 205.617188 115.371094 205.878906 115.539062 C 206.140625 115.707031 206.382812 115.902344 206.605469 116.117188 C 206.828125 116.335938 207.03125 116.574219 207.207031 116.828125 C 207.382812 117.085938 207.535156 117.359375 207.660156 117.644531 C 207.78125 117.933594 207.878906 118.226562 207.941406 118.535156 C 208.007812 118.839844 208.046875 119.148438 208.050781 119.460938 C 208.058594 119.78125 208.03125 120.097656 207.976562 120.410156 C 207.921875 120.722656 207.835938 121.027344 207.71875 121.324219 C 207.601562 121.621094 207.457031 121.902344 207.285156 122.171875 C 207.113281 122.4375 206.917969 122.6875 206.695312 122.914062 C 206.476562 123.144531 206.234375 123.347656 205.972656 123.527344 C 205.710938 123.707031 205.433594 123.859375 205.144531 123.984375 C 204.851562 124.109375 204.550781 124.207031 204.242188 124.269531 C 203.929688 124.335938 203.617188 124.367188 203.300781 124.371094 C 202.988281 124.371094 202.679688 124.339844 202.375 124.28125 C 202.070312 124.222656 201.777344 124.132812 201.488281 124.011719 C 201.203125 123.894531 200.929688 123.746094 200.671875 123.574219 C 200.414062 123.402344 200.175781 123.203125 199.953125 122.984375 C 199.734375 122.761719 199.539062 122.523438 199.367188 122.261719 C 199.195312 122.003906 199.050781 121.726562 198.929688 121.441406 C 198.8125 121.152344 198.722656 120.855469 198.664062 120.546875 C 198.605469 120.242188 198.574219 119.933594 198.574219 119.621094 Z M 198.574219 119.621094 " clip-rule="nonzero"/></clipPath><linearGradient x1="207.614579" gradientTransform="matrix(0.658017, 0, 0, 0.661642, 72.294841, 97.726168)" y1="27.946078" x2="190.592076" gradientUnits="userSpaceOnUse" y2="38.067214" id="f949339329"><stop stop-opacity="1" stop-color="rgb(49.461365%, 37.287903%, 86.314392%)" offset="0"/><stop stop-opacity="1" stop-color="rgb(49.267578%, 37.14447%, 86.219788%)" offset="0.125"/><stop stop-opacity="1" stop-color="rgb(48.878479%, 36.856079%, 86.03363%)" offset="0.25"/><stop stop-opacity="1" stop-color="rgb(48.490906%, 36.567688%, 85.845947%)" offset="0.374252"/><stop stop-opacity="1" stop-color="rgb(48.297119%, 36.424255%, 85.752869%)" offset="0.375"/><stop stop-opacity="1" stop-color="rgb(48.101807%, 36.279297%, 85.658264%)" offset="0.5"/><stop stop-opacity="1" stop-color="rgb(47.712708%, 35.992432%, 85.470581%)" offset="0.625"/><stop stop-opacity="1" stop-color="rgb(47.325134%, 35.704041%, 85.282898%)" offset="0.625748"/><stop stop-opacity="1" stop-color="rgb(47.131348%, 35.560608%, 85.189819%)" offset="0.75"/><stop stop-opacity="1" stop-color="rgb(46.936035%, 35.415649%, 85.095215%)" offset="0.875"/><stop stop-opacity="1" stop-color="rgb(46.548462%, 35.128784%, 84.909058%)" offset="1"/></linearGradient><clipPath id="b341ed817a"><path d="M 184 131 L 194 131 L 194 141 L 184 141 Z M 184 131 " clip-rule="nonzero"/></clipPath><clipPath id="5a112e347d"><path d="M 188.765625 140.734375 C 188.457031 140.722656 188.152344 140.683594 187.851562 140.613281 C 187.550781 140.542969 187.261719 140.445312 186.980469 140.320312 C 186.699219 140.195312 186.433594 140.042969 186.179688 139.863281 C 185.929688 139.683594 185.695312 139.484375 185.484375 139.261719 C 185.269531 139.039062 185.082031 138.796875 184.914062 138.535156 C 184.746094 138.273438 184.605469 138 184.492188 137.710938 C 184.378906 137.425781 184.292969 137.128906 184.238281 136.824219 C 184.183594 136.519531 184.15625 136.210938 184.15625 135.902344 C 184.175781 135.585938 184.222656 135.269531 184.296875 134.960938 C 184.375 134.652344 184.480469 134.355469 184.613281 134.066406 C 184.746094 133.777344 184.90625 133.503906 185.09375 133.242188 C 185.277344 132.984375 185.484375 132.746094 185.714844 132.527344 C 185.945312 132.308594 186.195312 132.117188 186.464844 131.945312 C 186.730469 131.773438 187.011719 131.628906 187.308594 131.511719 C 187.601562 131.398438 187.90625 131.308594 188.214844 131.25 C 188.527344 131.191406 188.84375 131.164062 189.160156 131.164062 C 189.46875 131.1875 189.773438 131.238281 190.074219 131.320312 C 190.375 131.398438 190.664062 131.507812 190.941406 131.644531 C 191.222656 131.78125 191.488281 131.941406 191.734375 132.128906 C 191.984375 132.3125 192.214844 132.523438 192.425781 132.75 C 192.632812 132.980469 192.820312 133.230469 192.984375 133.496094 C 193.148438 133.761719 193.28125 134.039062 193.394531 134.332031 C 193.503906 134.625 193.585938 134.921875 193.640625 135.230469 C 193.691406 135.539062 193.71875 135.847656 193.710938 136.160156 C 193.703125 136.476562 193.660156 136.785156 193.585938 137.089844 C 193.515625 137.398438 193.414062 137.691406 193.28125 137.976562 C 193.152344 138.265625 192.996094 138.535156 192.8125 138.789062 C 192.625 139.042969 192.417969 139.273438 192.1875 139.488281 C 191.960938 139.699219 191.710938 139.886719 191.441406 140.050781 C 191.175781 140.214844 190.894531 140.347656 190.601562 140.457031 C 190.308594 140.5625 190.003906 140.640625 189.695312 140.6875 C 189.386719 140.734375 189.074219 140.75 188.765625 140.734375 Z M 188.765625 140.734375 " clip-rule="nonzero"/></clipPath><linearGradient x1="185.824071" gradientTransform="matrix(0.658017, 0, 0, 0.661642, 72.294841, 97.726168)" y1="52.717986" x2="168.724386" gradientUnits="userSpaceOnUse" y2="62.885013" id="324ddfec92"><stop stop-opacity="1" stop-color="rgb(44.535828%, 33.636475%, 83.938599%)" offset="0"/><stop stop-opacity="1" stop-color="rgb(44.340515%, 33.491516%, 83.843994%)" offset="0.125"/><stop stop-opacity="1" stop-color="rgb(43.94989%, 33.203125%, 83.654785%)" offset="0.25"/><stop stop-opacity="1" stop-color="rgb(43.560791%, 32.913208%, 83.467102%)" offset="0.372139"/><stop stop-opacity="1" stop-color="rgb(43.365479%, 32.769775%, 83.372498%)" offset="0.375"/><stop stop-opacity="1" stop-color="rgb(43.170166%, 32.624817%, 83.277893%)" offset="0.5"/><stop stop-opacity="1" stop-color="rgb(42.779541%, 32.3349%, 83.09021%)" offset="0.625"/><stop stop-opacity="1" stop-color="rgb(42.388916%, 32.044983%, 82.902527%)" offset="0.627861"/><stop stop-opacity="1" stop-color="rgb(42.195129%, 31.90155%, 82.807922%)" offset="0.75"/><stop stop-opacity="1" stop-color="rgb(41.999817%, 31.756592%, 82.713318%)" offset="0.875"/><stop stop-opacity="1" stop-color="rgb(41.609192%, 31.466675%, 82.525635%)" offset="1"/></linearGradient><clipPath id="03834c667e"><path d="M 185 100 L 192 100 L 192 107 L 185 107 Z M 185 100 " clip-rule="nonzero"/></clipPath><clipPath id="dad8358abd"><path d="M 188.671875 100.492188 C 189.078125 100.496094 189.464844 100.582031 189.839844 100.746094 C 190.210938 100.90625 190.535156 101.136719 190.816406 101.429688 C 191.097656 101.722656 191.3125 102.058594 191.460938 102.441406 C 191.605469 102.820312 191.675781 103.214844 191.664062 103.621094 C 191.65625 104.03125 191.566406 104.421875 191.402344 104.796875 C 191.234375 105.171875 191.003906 105.5 190.707031 105.785156 C 190.414062 106.066406 190.074219 106.28125 189.695312 106.429688 C 189.3125 106.574219 188.917969 106.644531 188.511719 106.632812 C 188.101562 106.621094 187.710938 106.53125 187.339844 106.363281 C 186.96875 106.199219 186.640625 105.964844 186.359375 105.667969 C 186.078125 105.371094 185.867188 105.027344 185.722656 104.644531 C 185.574219 104.261719 185.507812 103.867188 185.519531 103.457031 C 185.53125 103.046875 185.621094 102.660156 185.785156 102.289062 C 185.953125 101.914062 186.183594 101.589844 186.480469 101.3125 C 186.777344 101.035156 187.113281 100.824219 187.496094 100.679688 C 187.875 100.539062 188.265625 100.476562 188.671875 100.492188 Z M 188.671875 100.492188 " clip-rule="nonzero"/></clipPath><linearGradient x1="182.238992" gradientTransform="matrix(0.658017, 0, 0, 0.661642, 72.294841, 97.726168)" y1="5.525168" x2="171.220301" gradientUnits="userSpaceOnUse" y2="12.076594" id="103e2573fb"><stop stop-opacity="1" stop-color="rgb(47.83783%, 36.083984%, 85.531616%)" offset="0"/><stop stop-opacity="1" stop-color="rgb(47.711182%, 35.990906%, 85.470581%)" offset="0.125"/><stop stop-opacity="1" stop-color="rgb(47.459412%, 35.804749%, 85.348511%)" offset="0.25"/><stop stop-opacity="1" stop-color="rgb(47.209167%, 35.618591%, 85.227966%)" offset="0.371598"/><stop stop-opacity="1" stop-color="rgb(47.084045%, 35.525513%, 85.166931%)" offset="0.375"/><stop stop-opacity="1" stop-color="rgb(46.957397%, 35.432434%, 85.105896%)" offset="0.5"/><stop stop-opacity="1" stop-color="rgb(46.705627%, 35.246277%, 84.985352%)" offset="0.625"/><stop stop-opacity="1" stop-color="rgb(46.453857%, 35.058594%, 84.863281%)" offset="0.628402"/><stop stop-opacity="1" stop-color="rgb(46.328735%, 34.965515%, 84.803772%)" offset="0.75"/><stop stop-opacity="1" stop-color="rgb(46.202087%, 34.872437%, 84.742737%)" offset="0.875"/><stop stop-opacity="1" stop-color="rgb(45.951843%, 34.686279%, 84.620667%)" offset="1"/></linearGradient><clipPath id="b103a5fe12"><path d="M 72 132 L 79 132 L 79 140 L 72 140 Z M 72 132 " clip-rule="nonzero"/></clipPath><clipPath id="eecabdc3be"><path d="M 72.292969 135.769531 C 72.285156 136.179688 72.351562 136.578125 72.492188 136.960938 C 72.636719 137.34375 72.839844 137.691406 73.109375 137.996094 C 73.378906 138.304688 73.695312 138.550781 74.058594 138.738281 C 74.421875 138.921875 74.804688 139.039062 75.210938 139.078125 C 75.613281 139.066406 76 138.980469 76.371094 138.828125 C 76.746094 138.675781 77.082031 138.460938 77.378906 138.1875 C 77.675781 137.914062 77.914062 137.597656 78.097656 137.238281 C 78.28125 136.878906 78.398438 136.496094 78.449219 136.09375 C 78.453125 135.6875 78.386719 135.292969 78.242188 134.914062 C 78.097656 134.53125 77.886719 134.191406 77.613281 133.894531 C 77.339844 133.59375 77.019531 133.355469 76.652344 133.183594 C 76.289062 133.007812 75.902344 132.90625 75.5 132.878906 C 75.097656 132.859375 74.707031 132.917969 74.324219 133.054688 C 73.945312 133.1875 73.605469 133.390625 73.304688 133.664062 C 73.003906 133.933594 72.769531 134.25 72.59375 134.617188 C 72.417969 134.980469 72.320312 135.367188 72.292969 135.769531 Z M 72.292969 135.769531 " clip-rule="nonzero"/></clipPath><clipPath id="5b4f57ce8f"><path d="M 139 128 L 167 128 L 167 156.976562 L 139 156.976562 Z M 139 128 " clip-rule="nonzero"/></clipPath><clipPath id="71122e911f"><path d="M 159.949219 128.75 C 160.589844 128.738281 161.214844 128.820312 161.832031 128.992188 C 162.449219 129.167969 163.027344 129.429688 163.5625 129.777344 C 164.101562 130.125 164.578125 130.542969 164.992188 131.035156 C 165.40625 131.523438 165.742188 132.0625 165.996094 132.652344 C 167.3125 135.5 166.78125 138.292969 164.550781 140.5625 C 160.753906 144.417969 156.914062 148.230469 153.097656 152.054688 C 152.21875 152.941406 151.375 153.867188 150.46875 154.699219 C 150.144531 155.003906 149.796875 155.273438 149.425781 155.511719 C 149.050781 155.746094 148.65625 155.945312 148.246094 156.101562 C 147.832031 156.261719 147.40625 156.378906 146.972656 156.453125 C 146.539062 156.527344 146.097656 156.558594 145.65625 156.550781 C 145.214844 156.539062 144.78125 156.484375 144.347656 156.386719 C 143.917969 156.289062 143.5 156.152344 143.097656 155.972656 C 142.691406 155.792969 142.308594 155.578125 141.949219 155.324219 C 141.585938 155.070312 141.25 154.78125 140.945312 154.460938 C 140.632812 154.136719 140.355469 153.789062 140.113281 153.410156 C 139.867188 153.03125 139.664062 152.632812 139.496094 152.214844 C 139.332031 151.792969 139.207031 151.363281 139.125 150.921875 C 139.042969 150.476562 139.007812 150.03125 139.011719 149.578125 C 139.019531 149.128906 139.066406 148.683594 139.160156 148.242188 C 139.253906 147.800781 139.386719 147.375 139.566406 146.957031 C 139.742188 146.542969 139.957031 146.152344 140.210938 145.78125 C 140.464844 145.40625 140.75 145.0625 141.070312 144.75 C 145.589844 140.15625 150.15625 135.613281 154.703125 131.054688 C 156.140625 129.589844 157.796875 128.617188 159.949219 128.75 Z M 159.949219 128.75 " clip-rule="nonzero"/></clipPath><linearGradient x1="147.941215" gradientTransform="matrix(0.658017, 0, 0, 0.661642, 72.294841, 97.726168)" y1="52.645217" x2="97.609652" gradientUnits="userSpaceOnUse" y2="82.574263" id="6754399cd1"><stop stop-opacity="1" stop-color="rgb(39.433289%, 29.853821%, 81.47583%)" offset="0"/><stop stop-opacity="1" stop-color="rgb(39.28833%, 29.747009%, 81.40564%)" offset="0.03125"/><stop stop-opacity="1" stop-color="rgb(39.001465%, 29.534912%, 81.266785%)" offset="0.0625"/><stop stop-opacity="1" stop-color="rgb(38.7146%, 29.321289%, 81.12793%)" offset="0.09375"/><stop stop-opacity="1" stop-color="rgb(38.427734%, 29.109192%, 80.990601%)" offset="0.125"/><stop stop-opacity="1" stop-color="rgb(38.140869%, 28.895569%, 80.851746%)" offset="0.15625"/><stop stop-opacity="1" stop-color="rgb(37.852478%, 28.683472%, 80.712891%)" offset="0.1875"/><stop stop-opacity="1" stop-color="rgb(37.565613%, 28.469849%, 80.574036%)" offset="0.21875"/><stop stop-opacity="1" stop-color="rgb(37.278748%, 28.257751%, 80.435181%)" offset="0.25"/><stop stop-opacity="1" stop-color="rgb(36.991882%, 28.044128%, 80.297852%)" offset="0.28125"/><stop stop-opacity="1" stop-color="rgb(36.705017%, 27.832031%, 80.158997%)" offset="0.3125"/><stop stop-opacity="1" stop-color="rgb(36.416626%, 27.618408%, 80.020142%)" offset="0.34375"/><stop stop-opacity="1" stop-color="rgb(36.129761%, 27.406311%, 79.881287%)" offset="0.368599"/><stop stop-opacity="1" stop-color="rgb(35.986328%, 27.2995%, 79.812622%)" offset="0.375"/><stop stop-opacity="1" stop-color="rgb(35.842896%, 27.192688%, 79.742432%)" offset="0.40625"/><stop stop-opacity="1" stop-color="rgb(35.55603%, 26.980591%, 79.603577%)" offset="0.4375"/><stop stop-opacity="1" stop-color="rgb(35.269165%, 26.766968%, 79.466248%)" offset="0.46875"/><stop stop-opacity="1" stop-color="rgb(34.980774%, 26.554871%, 79.327393%)" offset="0.5"/><stop stop-opacity="1" stop-color="rgb(34.693909%, 26.341248%, 79.188538%)" offset="0.53125"/><stop stop-opacity="1" stop-color="rgb(34.407043%, 26.12915%, 79.049683%)" offset="0.5625"/><stop stop-opacity="1" stop-color="rgb(34.120178%, 25.915527%, 78.910828%)" offset="0.59375"/><stop stop-opacity="1" stop-color="rgb(33.833313%, 25.70343%, 78.773499%)" offset="0.625"/><stop stop-opacity="1" stop-color="rgb(33.546448%, 25.489807%, 78.634644%)" offset="0.631401"/><stop stop-opacity="1" stop-color="rgb(33.403015%, 25.384521%, 78.565979%)" offset="0.65625"/><stop stop-opacity="1" stop-color="rgb(33.258057%, 25.27771%, 78.495789%)" offset="0.6875"/><stop stop-opacity="1" stop-color="rgb(32.971191%, 25.064087%, 78.356934%)" offset="0.71875"/><stop stop-opacity="1" stop-color="rgb(32.684326%, 24.85199%, 78.218079%)" offset="0.75"/><stop stop-opacity="1" stop-color="rgb(32.397461%, 24.638367%, 78.08075%)" offset="0.78125"/><stop stop-opacity="1" stop-color="rgb(32.110596%, 24.42627%, 77.941895%)" offset="0.8125"/><stop stop-opacity="1" stop-color="rgb(31.822205%, 24.212646%, 77.80304%)" offset="0.84375"/><stop stop-opacity="1" stop-color="rgb(31.538391%, 24.003601%, 77.66571%)" offset="0.875"/><stop stop-opacity="1" stop-color="rgb(31.399536%, 23.899841%, 77.598572%)" offset="1"/></linearGradient><clipPath id="783476e81a"><path d="M 94 128 L 123 128 L 123 156.976562 L 94 156.976562 Z M 94 128 " clip-rule="nonzero"/></clipPath><clipPath id="e40d5cce94"><path d="M 101.183594 128.75 C 100.542969 128.738281 99.914062 128.820312 99.296875 128.992188 C 98.679688 129.167969 98.105469 129.429688 97.566406 129.777344 C 97.027344 130.125 96.550781 130.542969 96.132812 131.035156 C 95.71875 131.523438 95.382812 132.0625 95.128906 132.652344 C 93.8125 135.5 94.34375 138.292969 96.582031 140.5625 C 100.371094 144.417969 104.207031 148.230469 108.023438 152.054688 C 108.90625 152.941406 109.75 153.867188 110.65625 154.699219 C 110.976562 155.003906 111.324219 155.273438 111.699219 155.511719 C 112.074219 155.746094 112.464844 155.941406 112.878906 156.101562 C 113.289062 156.261719 113.714844 156.378906 114.148438 156.453125 C 114.585938 156.527344 115.023438 156.558594 115.464844 156.546875 C 115.90625 156.539062 116.339844 156.484375 116.769531 156.386719 C 117.203125 156.289062 117.617188 156.152344 118.023438 155.972656 C 118.425781 155.792969 118.808594 155.578125 119.171875 155.324219 C 119.53125 155.070312 119.867188 154.78125 120.171875 154.460938 C 120.484375 154.140625 120.761719 153.789062 121.007812 153.410156 C 121.25 153.03125 121.457031 152.632812 121.621094 152.214844 C 121.789062 151.796875 121.910156 151.363281 121.992188 150.921875 C 122.074219 150.480469 122.113281 150.03125 122.109375 149.582031 C 122.101562 149.128906 122.054688 148.683594 121.960938 148.242188 C 121.867188 147.800781 121.734375 147.375 121.558594 146.960938 C 121.382812 146.546875 121.167969 146.152344 120.914062 145.78125 C 120.660156 145.40625 120.375 145.0625 120.054688 144.75 C 115.53125 140.15625 110.964844 135.613281 106.414062 131.054688 C 104.992188 129.589844 103.328125 128.617188 101.183594 128.75 Z M 101.183594 128.75 " clip-rule="nonzero"/></clipPath><clipPath id="2a05271322"><path d="M 153 97.726562 L 181 97.726562 L 181 126 L 153 126 Z M 153 97.726562 " clip-rule="nonzero"/></clipPath><clipPath id="872279b724"><path d="M 173.40625 125.515625 C 172.589844 125.5 171.808594 125.324219 171.0625 124.992188 C 170.316406 124.660156 169.664062 124.195312 169.101562 123.597656 C 164.359375 118.851562 159.59375 114.136719 154.902344 109.339844 C 154.601562 109.023438 154.332031 108.679688 154.09375 108.3125 C 153.855469 107.945312 153.65625 107.558594 153.492188 107.152344 C 153.332031 106.746094 153.207031 106.328125 153.125 105.898438 C 153.042969 105.464844 153 105.03125 153 104.59375 C 153 104.15625 153.042969 103.722656 153.125 103.292969 C 153.207031 102.859375 153.332031 102.441406 153.492188 102.035156 C 153.65625 101.628906 153.855469 101.242188 154.09375 100.875 C 154.332031 100.507812 154.601562 100.164062 154.902344 99.851562 C 157.488281 97.203125 161.671875 96.90625 164.320312 99.460938 C 169.253906 104.222656 174.101562 109.074219 178.859375 114.015625 C 179.355469 114.492188 179.757812 115.039062 180.078125 115.648438 C 180.394531 116.257812 180.609375 116.902344 180.71875 117.582031 C 180.828125 118.261719 180.832031 118.941406 180.722656 119.621094 C 180.613281 120.300781 180.402344 120.949219 180.085938 121.558594 C 178.847656 124.191406 176.6875 125.628906 173.40625 125.515625 Z M 173.40625 125.515625 " clip-rule="nonzero"/></clipPath><linearGradient x1="168.66999" gradientTransform="matrix(0.658017, 0, 0, 0.661642, 72.294841, 97.726168)" y1="6.268413" x2="118.899076" gradientUnits="userSpaceOnUse" y2="35.860901" id="83d83699d1"><stop stop-opacity="1" stop-color="rgb(45.948792%, 34.683228%, 84.619141%)" offset="0"/><stop stop-opacity="1" stop-color="rgb(45.806885%, 34.577942%, 84.550476%)" offset="0.03125"/><stop stop-opacity="1" stop-color="rgb(45.523071%, 34.368896%, 84.413147%)" offset="0.0625"/><stop stop-opacity="1" stop-color="rgb(45.237732%, 34.158325%, 84.277344%)" offset="0.09375"/><stop stop-opacity="1" stop-color="rgb(44.953918%, 33.947754%, 84.140015%)" offset="0.125"/><stop stop-opacity="1" stop-color="rgb(44.670105%, 33.737183%, 84.002686%)" offset="0.15625"/><stop stop-opacity="1" stop-color="rgb(44.386292%, 33.526611%, 83.865356%)" offset="0.1875"/><stop stop-opacity="1" stop-color="rgb(44.102478%, 33.31604%, 83.728027%)" offset="0.21875"/><stop stop-opacity="1" stop-color="rgb(43.818665%, 33.105469%, 83.592224%)" offset="0.25"/><stop stop-opacity="1" stop-color="rgb(43.534851%, 32.894897%, 83.454895%)" offset="0.28125"/><stop stop-opacity="1" stop-color="rgb(43.251038%, 32.684326%, 83.317566%)" offset="0.3125"/><stop stop-opacity="1" stop-color="rgb(42.967224%, 32.473755%, 83.180237%)" offset="0.34375"/><stop stop-opacity="1" stop-color="rgb(42.683411%, 32.263184%, 83.042908%)" offset="0.372194"/><stop stop-opacity="1" stop-color="rgb(42.541504%, 32.157898%, 82.975769%)" offset="0.375"/><stop stop-opacity="1" stop-color="rgb(42.399597%, 32.052612%, 82.907104%)" offset="0.40625"/><stop stop-opacity="1" stop-color="rgb(42.114258%, 31.842041%, 82.769775%)" offset="0.4375"/><stop stop-opacity="1" stop-color="rgb(41.830444%, 31.63147%, 82.632446%)" offset="0.46875"/><stop stop-opacity="1" stop-color="rgb(41.546631%, 31.420898%, 82.495117%)" offset="0.5"/><stop stop-opacity="1" stop-color="rgb(41.262817%, 31.210327%, 82.357788%)" offset="0.53125"/><stop stop-opacity="1" stop-color="rgb(40.979004%, 30.999756%, 82.221985%)" offset="0.5625"/><stop stop-opacity="1" stop-color="rgb(40.69519%, 30.789185%, 82.084656%)" offset="0.59375"/><stop stop-opacity="1" stop-color="rgb(40.411377%, 30.578613%, 81.947327%)" offset="0.625"/><stop stop-opacity="1" stop-color="rgb(40.127563%, 30.369568%, 81.809998%)" offset="0.627806"/><stop stop-opacity="1" stop-color="rgb(39.985657%, 30.264282%, 81.742859%)" offset="0.65625"/><stop stop-opacity="1" stop-color="rgb(39.84375%, 30.158997%, 81.674194%)" offset="0.6875"/><stop stop-opacity="1" stop-color="rgb(39.559937%, 29.948425%, 81.536865%)" offset="0.71875"/><stop stop-opacity="1" stop-color="rgb(39.274597%, 29.737854%, 81.399536%)" offset="0.75"/><stop stop-opacity="1" stop-color="rgb(38.990784%, 29.527283%, 81.262207%)" offset="0.78125"/><stop stop-opacity="1" stop-color="rgb(38.70697%, 29.316711%, 81.124878%)" offset="0.8125"/><stop stop-opacity="1" stop-color="rgb(38.423157%, 29.10614%, 80.989075%)" offset="0.84375"/><stop stop-opacity="1" stop-color="rgb(38.139343%, 28.895569%, 80.851746%)" offset="0.875"/><stop stop-opacity="1" stop-color="rgb(37.85553%, 28.684998%, 80.714417%)" offset="0.90625"/><stop stop-opacity="1" stop-color="rgb(37.571716%, 28.474426%, 80.577087%)" offset="0.9375"/><stop stop-opacity="1" stop-color="rgb(37.287903%, 28.263855%, 80.439758%)" offset="0.96875"/><stop stop-opacity="1" stop-color="rgb(37.004089%, 28.053284%, 80.303955%)" offset="1"/></linearGradient><clipPath id="4dadc42cab"><path d="M 124 97.726562 L 153 97.726562 L 153 126 L 124 126 Z M 124 97.726562 " clip-rule="nonzero"/></clipPath><clipPath id="055423148b"><path d="M 145.722656 125.59375 C 144.878906 125.625 144.066406 125.484375 143.28125 125.175781 C 142.496094 124.867188 141.804688 124.414062 141.210938 123.816406 C 136.359375 118.964844 131.476562 114.148438 126.734375 109.257812 C 124.167969 106.613281 124.390625 102.5625 127.046875 99.816406 C 127.347656 99.507812 127.675781 99.234375 128.03125 98.988281 C 128.382812 98.746094 128.757812 98.539062 129.152344 98.367188 C 129.546875 98.195312 129.953125 98.0625 130.371094 97.972656 C 130.789062 97.878906 131.214844 97.828125 131.644531 97.816406 C 132.074219 97.808594 132.5 97.839844 132.921875 97.910156 C 133.34375 97.984375 133.757812 98.097656 134.15625 98.25 C 134.558594 98.402344 134.941406 98.589844 135.308594 98.820312 C 135.671875 99.046875 136.011719 99.304688 136.328125 99.597656 C 140.070312 103.199219 143.722656 106.988281 147.425781 110.695312 C 148.527344 111.800781 149.671875 112.863281 150.71875 114.003906 C 151.1875 114.480469 151.578125 115.015625 151.886719 115.613281 C 152.195312 116.210938 152.40625 116.839844 152.527344 117.5 C 152.644531 118.164062 152.660156 118.828125 152.574219 119.496094 C 152.492188 120.160156 152.3125 120.800781 152.035156 121.414062 C 150.929688 124.191406 148.738281 125.582031 145.722656 125.59375 Z M 145.722656 125.59375 " clip-rule="nonzero"/></clipPath><linearGradient x1="125.879461" gradientTransform="matrix(0.658017, 0, 0, 0.661642, 72.294841, 97.726168)" y1="6.424896" x2="75.41889" gradientUnits="userSpaceOnUse" y2="36.42935" id="b3a0b47a89"><stop stop-opacity="1" stop-color="rgb(40.161133%, 30.393982%, 81.826782%)" offset="0"/><stop stop-opacity="1" stop-color="rgb(40.016174%, 30.28717%, 81.756592%)" offset="0.03125"/><stop stop-opacity="1" stop-color="rgb(39.729309%, 30.073547%, 81.617737%)" offset="0.0625"/><stop stop-opacity="1" stop-color="rgb(39.440918%, 29.859924%, 81.478882%)" offset="0.09375"/><stop stop-opacity="1" stop-color="rgb(39.152527%, 29.647827%, 81.340027%)" offset="0.125"/><stop stop-opacity="1" stop-color="rgb(38.865662%, 29.434204%, 81.201172%)" offset="0.15625"/><stop stop-opacity="1" stop-color="rgb(38.577271%, 29.220581%, 81.062317%)" offset="0.1875"/><stop stop-opacity="1" stop-color="rgb(38.288879%, 29.006958%, 80.923462%)" offset="0.21875"/><stop stop-opacity="1" stop-color="rgb(38.002014%, 28.793335%, 80.784607%)" offset="0.25"/><stop stop-opacity="1" stop-color="rgb(37.713623%, 28.579712%, 80.645752%)" offset="0.28125"/><stop stop-opacity="1" stop-color="rgb(37.425232%, 28.366089%, 80.506897%)" offset="0.3125"/><stop stop-opacity="1" stop-color="rgb(37.138367%, 28.152466%, 80.368042%)" offset="0.34375"/><stop stop-opacity="1" stop-color="rgb(36.849976%, 27.940369%, 80.229187%)" offset="0.366015"/><stop stop-opacity="1" stop-color="rgb(36.706543%, 27.833557%, 80.160522%)" offset="0.375"/><stop stop-opacity="1" stop-color="rgb(36.561584%, 27.726746%, 80.090332%)" offset="0.40625"/><stop stop-opacity="1" stop-color="rgb(36.274719%, 27.513123%, 79.951477%)" offset="0.4375"/><stop stop-opacity="1" stop-color="rgb(35.986328%, 27.2995%, 79.812622%)" offset="0.46875"/><stop stop-opacity="1" stop-color="rgb(35.697937%, 27.085876%, 79.673767%)" offset="0.5"/><stop stop-opacity="1" stop-color="rgb(35.409546%, 26.872253%, 79.533386%)" offset="0.53125"/><stop stop-opacity="1" stop-color="rgb(35.122681%, 26.65863%, 79.394531%)" offset="0.5625"/><stop stop-opacity="1" stop-color="rgb(34.83429%, 26.446533%, 79.255676%)" offset="0.59375"/><stop stop-opacity="1" stop-color="rgb(34.545898%, 26.23291%, 79.116821%)" offset="0.625"/><stop stop-opacity="1" stop-color="rgb(34.259033%, 26.019287%, 78.977966%)" offset="0.633985"/><stop stop-opacity="1" stop-color="rgb(34.115601%, 25.912476%, 78.909302%)" offset="0.65625"/><stop stop-opacity="1" stop-color="rgb(33.970642%, 25.805664%, 78.839111%)" offset="0.6875"/><stop stop-opacity="1" stop-color="rgb(33.682251%, 25.592041%, 78.700256%)" offset="0.71875"/><stop stop-opacity="1" stop-color="rgb(33.395386%, 25.378418%, 78.561401%)" offset="0.75"/><stop stop-opacity="1" stop-color="rgb(33.106995%, 25.164795%, 78.422546%)" offset="0.78125"/><stop stop-opacity="1" stop-color="rgb(32.818604%, 24.951172%, 78.283691%)" offset="0.8125"/><stop stop-opacity="1" stop-color="rgb(32.531738%, 24.739075%, 78.144836%)" offset="0.84375"/><stop stop-opacity="1" stop-color="rgb(32.243347%, 24.525452%, 78.005981%)" offset="0.875"/><stop stop-opacity="1" stop-color="rgb(31.954956%, 24.311829%, 77.867126%)" offset="0.90625"/><stop stop-opacity="1" stop-color="rgb(31.666565%, 24.098206%, 77.728271%)" offset="0.9375"/><stop stop-opacity="1" stop-color="rgb(31.460571%, 23.945618%, 77.629089%)" offset="1"/></linearGradient><clipPath id="543a0b0822"><path d="M 82 114 L 95 114 L 95 126 L 82 126 Z M 82 114 " clip-rule="nonzero"/></clipPath><clipPath id="20d2fe1c0b"><path d="M 88.746094 125.5625 C 88.375 125.5625 88.007812 125.53125 87.640625 125.460938 C 87.277344 125.394531 86.921875 125.292969 86.578125 125.15625 C 86.230469 125.019531 85.902344 124.851562 85.589844 124.652344 C 85.277344 124.453125 84.984375 124.226562 84.714844 123.972656 C 84.441406 123.71875 84.199219 123.441406 83.980469 123.136719 C 83.761719 122.835938 83.574219 122.515625 83.417969 122.179688 C 83.261719 121.839844 83.136719 121.492188 83.046875 121.128906 C 82.953125 120.769531 82.898438 120.402344 82.875 120.03125 C 82.757812 117.019531 85.507812 114.15625 88.542969 114.074219 C 88.917969 114.074219 89.292969 114.113281 89.660156 114.1875 C 90.03125 114.261719 90.390625 114.371094 90.738281 114.515625 C 91.085938 114.65625 91.417969 114.835938 91.734375 115.042969 C 92.046875 115.253906 92.339844 115.488281 92.605469 115.757812 C 92.875 116.023438 93.117188 116.3125 93.328125 116.625 C 93.539062 116.9375 93.722656 117.269531 93.871094 117.617188 C 94.019531 117.964844 94.132812 118.324219 94.210938 118.695312 C 94.289062 119.066406 94.332031 119.441406 94.339844 119.820312 C 94.339844 120.191406 94.304688 120.558594 94.234375 120.925781 C 94.160156 121.289062 94.054688 121.644531 93.917969 121.988281 C 93.777344 122.335938 93.605469 122.664062 93.402344 122.972656 C 93.199219 123.285156 92.96875 123.574219 92.710938 123.839844 C 92.449219 124.105469 92.167969 124.34375 91.863281 124.554688 C 91.558594 124.765625 91.234375 124.945312 90.894531 125.09375 C 90.554688 125.238281 90.203125 125.351562 89.84375 125.433594 C 89.480469 125.511719 89.117188 125.554688 88.746094 125.5625 Z M 88.746094 125.5625 " clip-rule="nonzero"/></clipPath><clipPath id="2eb653b38d"><path d="M 124 130 L 136 130 L 136 142 L 124 142 Z M 124 130 " clip-rule="nonzero"/></clipPath><clipPath id="40807b8cf5"><path d="M 130.429688 130.246094 C 130.800781 130.265625 131.167969 130.320312 131.527344 130.414062 C 131.890625 130.503906 132.238281 130.628906 132.574219 130.792969 C 132.910156 130.953125 133.226562 131.144531 133.527344 131.367188 C 133.824219 131.589844 134.097656 131.839844 134.347656 132.117188 C 134.597656 132.394531 134.816406 132.695312 135.007812 133.015625 C 135.199219 133.335938 135.359375 133.671875 135.484375 134.027344 C 135.609375 134.378906 135.699219 134.738281 135.753906 135.109375 C 135.808594 135.480469 135.828125 135.851562 135.808594 136.222656 C 135.789062 136.597656 135.734375 136.964844 135.644531 137.328125 C 135.554688 137.691406 135.433594 138.042969 135.273438 138.382812 C 135.113281 138.71875 134.925781 139.039062 134.703125 139.339844 C 134.484375 139.640625 134.234375 139.917969 133.960938 140.167969 C 133.683594 140.421875 133.386719 140.644531 133.070312 140.835938 C 132.75 141.03125 132.417969 141.191406 132.066406 141.316406 C 131.714844 141.445312 131.359375 141.535156 130.988281 141.59375 C 130.621094 141.648438 130.253906 141.667969 129.882812 141.652344 C 129.507812 141.636719 129.144531 141.582031 128.78125 141.492188 C 128.421875 141.402344 128.070312 141.28125 127.734375 141.121094 C 127.398438 140.964844 127.078125 140.773438 126.777344 140.550781 C 126.476562 140.332031 126.203125 140.082031 125.949219 139.808594 C 125.699219 139.53125 125.476562 139.234375 125.285156 138.914062 C 125.089844 138.59375 124.929688 138.257812 124.800781 137.90625 C 124.675781 137.554688 124.582031 137.195312 124.523438 136.824219 C 124.46875 136.457031 124.445312 136.085938 124.460938 135.710938 C 124.476562 135.332031 124.527344 134.960938 124.617188 134.59375 C 124.703125 134.226562 124.828125 133.871094 124.984375 133.527344 C 125.144531 133.1875 125.335938 132.863281 125.558594 132.558594 C 125.777344 132.253906 126.027344 131.972656 126.308594 131.71875 C 126.585938 131.464844 126.886719 131.242188 127.207031 131.046875 C 127.527344 130.851562 127.867188 130.691406 128.222656 130.566406 C 128.574219 130.4375 128.9375 130.347656 129.308594 130.296875 C 129.683594 130.242188 130.054688 130.226562 130.429688 130.246094 Z M 130.429688 130.246094 " clip-rule="nonzero"/></clipPath><linearGradient x1="98.080517" gradientTransform="matrix(0.658017, 0, 0, 0.661642, 72.294841, 97.726168)" y1="51.692823" x2="77.705857" gradientUnits="userSpaceOnUse" y2="63.807065" id="9bec68943a"><stop stop-opacity="1" stop-color="rgb(32.783508%, 24.925232%, 78.266907%)" offset="0"/><stop stop-opacity="1" stop-color="rgb(32.666016%, 24.838257%, 78.210449%)" offset="0.0625"/><stop stop-opacity="1" stop-color="rgb(32.434082%, 24.665833%, 78.09906%)" offset="0.125"/><stop stop-opacity="1" stop-color="rgb(32.202148%, 24.493408%, 77.986145%)" offset="0.1875"/><stop stop-opacity="1" stop-color="rgb(31.968689%, 24.320984%, 77.874756%)" offset="0.25"/><stop stop-opacity="1" stop-color="rgb(31.736755%, 24.14856%, 77.761841%)" offset="0.3125"/><stop stop-opacity="1" stop-color="rgb(31.509399%, 23.980713%, 77.651978%)" offset="0.372919"/><stop stop-opacity="1" stop-color="rgb(31.399536%, 23.899841%, 77.598572%)" offset="0.375"/><stop stop-opacity="1" stop-color="rgb(31.399536%, 23.899841%, 77.598572%)" offset="0.5"/><stop stop-opacity="1" stop-color="rgb(31.399536%, 23.899841%, 77.598572%)" offset="0.627081"/><stop stop-opacity="1" stop-color="rgb(31.399536%, 23.899841%, 77.598572%)" offset="1"/></linearGradient><clipPath id="a70e2496db"><path d="M 169 146 L 179 146 L 179 156 L 169 156 Z M 169 146 " clip-rule="nonzero"/></clipPath><clipPath id="2baaae626c"><path d="M 178.589844 151.140625 C 178.59375 151.453125 178.566406 151.761719 178.507812 152.066406 C 178.449219 152.375 178.359375 152.671875 178.242188 152.960938 C 178.125 153.25 177.980469 153.523438 177.8125 153.785156 C 177.640625 154.046875 177.445312 154.285156 177.226562 154.507812 C 177.011719 154.730469 176.773438 154.929688 176.515625 155.105469 C 176.257812 155.277344 175.988281 155.425781 175.703125 155.546875 C 175.414062 155.667969 175.121094 155.761719 174.816406 155.824219 C 174.511719 155.886719 174.207031 155.917969 173.894531 155.921875 C 173.585938 155.921875 173.277344 155.894531 172.972656 155.835938 C 172.667969 155.777344 172.375 155.6875 172.085938 155.570312 C 171.796875 155.453125 171.523438 155.308594 171.265625 155.136719 C 171.007812 154.964844 170.765625 154.769531 170.546875 154.550781 C 170.324219 154.332031 170.128906 154.09375 169.953125 153.835938 C 169.78125 153.574219 169.632812 153.304688 169.511719 153.015625 C 169.390625 152.726562 169.300781 152.433594 169.238281 152.125 C 169.175781 151.820312 169.144531 151.511719 169.140625 151.199219 C 169.140625 150.886719 169.167969 150.578125 169.226562 150.273438 C 169.285156 149.964844 169.375 149.667969 169.488281 149.378906 C 169.605469 149.089844 169.75 148.816406 169.921875 148.554688 C 170.09375 148.296875 170.285156 148.054688 170.503906 147.832031 C 170.722656 147.609375 170.960938 147.410156 171.21875 147.238281 C 171.472656 147.0625 171.746094 146.914062 172.03125 146.792969 C 172.316406 146.671875 172.613281 146.578125 172.914062 146.515625 C 173.21875 146.453125 173.527344 146.421875 173.835938 146.417969 C 174.148438 146.417969 174.453125 146.445312 174.757812 146.503906 C 175.0625 146.5625 175.359375 146.652344 175.648438 146.769531 C 175.933594 146.886719 176.207031 147.03125 176.464844 147.203125 C 176.726562 147.375 176.964844 147.570312 177.1875 147.789062 C 177.40625 148.007812 177.605469 148.246094 177.777344 148.507812 C 177.953125 148.765625 178.097656 149.039062 178.21875 149.324219 C 178.339844 149.613281 178.433594 149.910156 178.496094 150.214844 C 178.558594 150.519531 178.589844 150.828125 178.589844 151.140625 Z M 178.589844 151.140625 " clip-rule="nonzero"/></clipPath><linearGradient x1="162.846928" gradientTransform="matrix(0.658017, 0, 0, 0.661642, 72.294841, 97.726168)" y1="75.785184" x2="145.922532" gradientUnits="userSpaceOnUse" y2="85.847988" id="ce76c4d463"><stop stop-opacity="1" stop-color="rgb(39.587402%, 29.968262%, 81.550598%)" offset="0"/><stop stop-opacity="1" stop-color="rgb(39.393616%, 29.824829%, 81.455994%)" offset="0.125"/><stop stop-opacity="1" stop-color="rgb(39.007568%, 29.53949%, 81.269836%)" offset="0.25"/><stop stop-opacity="1" stop-color="rgb(38.621521%, 29.252625%, 81.083679%)" offset="0.372873"/><stop stop-opacity="1" stop-color="rgb(38.427734%, 29.109192%, 80.990601%)" offset="0.375"/><stop stop-opacity="1" stop-color="rgb(38.233948%, 28.965759%, 80.897522%)" offset="0.5"/><stop stop-opacity="1" stop-color="rgb(37.8479%, 28.68042%, 80.711365%)" offset="0.625"/><stop stop-opacity="1" stop-color="rgb(37.461853%, 28.393555%, 80.525208%)" offset="0.627127"/><stop stop-opacity="1" stop-color="rgb(37.269592%, 28.250122%, 80.432129%)" offset="0.75"/><stop stop-opacity="1" stop-color="rgb(37.075806%, 28.106689%, 80.33905%)" offset="0.875"/><stop stop-opacity="1" stop-color="rgb(36.689758%, 27.82135%, 80.152893%)" offset="1"/></linearGradient><clipPath id="117ae008e3"><path d="M 84 146 L 95 146 L 95 156 L 84 156 Z M 84 146 " clip-rule="nonzero"/></clipPath><clipPath id="8e35f9a0a7"><path d="M 89.304688 155.992188 C 88.996094 155.984375 88.691406 155.949219 88.386719 155.882812 C 88.085938 155.816406 87.792969 155.71875 87.507812 155.597656 C 87.226562 155.472656 86.957031 155.320312 86.703125 155.144531 C 86.445312 154.96875 86.210938 154.769531 85.996094 154.542969 C 85.78125 154.320312 85.589844 154.078125 85.421875 153.820312 C 85.253906 153.558594 85.113281 153.28125 84.996094 152.992188 C 84.882812 152.703125 84.796875 152.40625 84.738281 152.101562 C 84.683594 151.796875 84.65625 151.488281 84.660156 151.175781 C 84.664062 150.867188 84.695312 150.558594 84.757812 150.253906 C 84.824219 149.949219 84.914062 149.652344 85.035156 149.367188 C 85.15625 149.082031 85.304688 148.808594 85.476562 148.550781 C 85.652344 148.292969 85.847656 148.058594 86.066406 147.839844 C 86.289062 147.621094 86.527344 147.425781 86.785156 147.253906 C 87.042969 147.082031 87.316406 146.9375 87.601562 146.820312 C 87.886719 146.699219 88.183594 146.613281 88.484375 146.550781 C 88.789062 146.492188 89.097656 146.464844 89.40625 146.464844 C 89.714844 146.464844 90.019531 146.496094 90.324219 146.554688 C 90.628906 146.617188 90.921875 146.707031 91.207031 146.824219 C 91.492188 146.945312 91.765625 147.089844 92.023438 147.261719 C 92.28125 147.433594 92.519531 147.628906 92.738281 147.851562 C 92.957031 148.070312 93.152344 148.308594 93.324219 148.566406 C 93.5 148.824219 93.644531 149.097656 93.765625 149.382812 C 93.882812 149.667969 93.976562 149.964844 94.039062 150.269531 C 94.101562 150.574219 94.132812 150.882812 94.132812 151.195312 C 94.140625 151.511719 94.113281 151.828125 94.054688 152.144531 C 94 152.457031 93.910156 152.761719 93.789062 153.058594 C 93.671875 153.351562 93.523438 153.632812 93.347656 153.898438 C 93.167969 154.164062 92.96875 154.410156 92.742188 154.632812 C 92.515625 154.859375 92.269531 155.058594 92.003906 155.230469 C 91.738281 155.40625 91.457031 155.550781 91.164062 155.667969 C 90.867188 155.785156 90.5625 155.867188 90.25 155.921875 C 89.9375 155.976562 89.621094 156 89.304688 155.992188 Z M 89.304688 155.992188 " clip-rule="nonzero"/></clipPath><clipPath id="b94d74ceda"><path d="M 72 132 L 79 132 L 79 140 L 72 140 Z M 72 132 " clip-rule="nonzero"/></clipPath><clipPath id="3fb36262da"><path d="M 72.292969 135.769531 C 72.3125 135.363281 72.410156 134.976562 72.585938 134.605469 C 72.757812 134.238281 72.996094 133.914062 73.292969 133.640625 C 73.59375 133.367188 73.9375 133.160156 74.320312 133.023438 C 74.699219 132.886719 75.09375 132.828125 75.5 132.847656 C 75.902344 132.871094 76.289062 132.972656 76.652344 133.148438 C 77.019531 133.324219 77.339844 133.5625 77.613281 133.859375 C 77.886719 134.160156 78.097656 134.5 78.242188 134.878906 C 78.386719 135.261719 78.453125 135.65625 78.449219 136.0625 C 78.398438 136.464844 78.28125 136.84375 78.097656 137.203125 C 77.914062 137.566406 77.675781 137.882812 77.378906 138.15625 C 77.082031 138.429688 76.746094 138.640625 76.371094 138.796875 C 76 138.949219 75.613281 139.03125 75.210938 139.046875 C 74.808594 139.003906 74.425781 138.890625 74.066406 138.707031 C 73.707031 138.523438 73.390625 138.277344 73.121094 137.976562 C 72.851562 137.671875 72.644531 137.332031 72.503906 136.949219 C 72.359375 136.570312 72.292969 136.175781 72.292969 135.769531 Z M 72.292969 135.769531 " clip-rule="nonzero"/></clipPath><clipPath id="8f6109d123"><path d="M 214 100 L 222 100 L 222 107 L 214 107 Z M 214 100 " clip-rule="nonzero"/></clipPath><clipPath id="65ce18077b"><path d="M 221.132812 103.417969 C 221.121094 103.835938 221.035156 104.238281 220.875 104.625 C 220.714844 105.011719 220.492188 105.355469 220.203125 105.65625 C 219.914062 105.960938 219.582031 106.199219 219.203125 106.375 C 218.824219 106.550781 218.429688 106.652344 218.011719 106.679688 C 217.625 106.652344 217.253906 106.558594 216.898438 106.394531 C 216.546875 106.234375 216.230469 106.015625 215.953125 105.742188 C 215.675781 105.464844 215.457031 105.152344 215.292969 104.796875 C 215.128906 104.441406 215.03125 104.070312 215 103.679688 C 214.984375 103.273438 215.046875 102.875 215.1875 102.492188 C 215.328125 102.109375 215.535156 101.765625 215.8125 101.46875 C 216.085938 101.167969 216.410156 100.929688 216.777344 100.757812 C 217.148438 100.589844 217.535156 100.492188 217.941406 100.476562 C 218.347656 100.460938 218.742188 100.523438 219.121094 100.664062 C 219.503906 100.804688 219.84375 101.011719 220.144531 101.289062 C 220.441406 101.566406 220.679688 101.890625 220.847656 102.261719 C 221.019531 102.632812 221.113281 103.019531 221.132812 103.429688 Z M 221.132812 103.417969 " clip-rule="nonzero"/></clipPath><linearGradient x1="227.012864" gradientTransform="matrix(0.658017, 0, 0, 0.661642, 72.294841, 97.726168)" y1="5.516505" x2="215.981408" gradientUnits="userSpaceOnUse" y2="12.076225" id="53786037d6"><stop stop-opacity="1" stop-color="rgb(53.878784%, 40.562439%, 88.446045%)" offset="0"/><stop stop-opacity="1" stop-color="rgb(53.752136%, 40.467834%, 88.38501%)" offset="0.125"/><stop stop-opacity="1" stop-color="rgb(53.500366%, 40.281677%, 88.262939%)" offset="0.25"/><stop stop-opacity="1" stop-color="rgb(53.248596%, 40.09552%, 88.142395%)" offset="0.374226"/><stop stop-opacity="1" stop-color="rgb(53.123474%, 40.002441%, 88.08136%)" offset="0.375"/><stop stop-opacity="1" stop-color="rgb(52.996826%, 39.907837%, 88.020325%)" offset="0.5"/><stop stop-opacity="1" stop-color="rgb(52.745056%, 39.72168%, 87.898254%)" offset="0.625"/><stop stop-opacity="1" stop-color="rgb(52.493286%, 39.535522%, 87.77771%)" offset="0.625774"/><stop stop-opacity="1" stop-color="rgb(52.368164%, 39.442444%, 87.716675%)" offset="0.75"/><stop stop-opacity="1" stop-color="rgb(52.241516%, 39.349365%, 87.65564%)" offset="0.875"/><stop stop-opacity="1" stop-color="rgb(51.989746%, 39.161682%, 87.533569%)" offset="1"/></linearGradient><clipPath id="946d134078"><path d="M 72 100 L 79 100 L 79 107 L 72 107 Z M 72 100 " clip-rule="nonzero"/></clipPath><clipPath id="2b561a5ec7"><path d="M 78.441406 103.417969 C 78.429688 103.835938 78.34375 104.238281 78.183594 104.625 C 78.023438 105.011719 77.796875 105.355469 77.507812 105.65625 C 77.21875 105.960938 76.886719 106.199219 76.507812 106.375 C 76.128906 106.550781 75.730469 106.652344 75.316406 106.679688 C 74.925781 106.652344 74.554688 106.558594 74.199219 106.398438 C 73.84375 106.238281 73.527344 106.023438 73.25 105.746094 C 72.972656 105.472656 72.75 105.15625 72.585938 104.800781 C 72.421875 104.445312 72.324219 104.070312 72.292969 103.679688 C 72.277344 103.273438 72.339844 102.875 72.484375 102.492188 C 72.625 102.109375 72.835938 101.769531 73.113281 101.46875 C 73.390625 101.171875 73.714844 100.9375 74.082031 100.769531 C 74.453125 100.601562 74.84375 100.511719 75.25 100.5 C 75.652344 100.476562 76.046875 100.53125 76.429688 100.667969 C 76.8125 100.804688 77.152344 101.011719 77.453125 101.285156 C 77.753906 101.558594 77.988281 101.882812 78.160156 102.25 C 78.332031 102.621094 78.425781 103.007812 78.441406 103.417969 Z M 78.441406 103.417969 " clip-rule="nonzero"/></clipPath><clipPath id="d19840428c"><path d="M 296 100 L 303 100 L 303 107 L 296 107 Z M 296 100 " clip-rule="nonzero"/></clipPath><clipPath id="c1edf70e13"><path d="M 299.855469 100.492188 C 300.261719 100.496094 300.652344 100.582031 301.023438 100.742188 C 301.394531 100.90625 301.722656 101.132812 302.003906 101.425781 C 302.285156 101.722656 302.496094 102.058594 302.644531 102.4375 C 302.789062 102.820312 302.855469 103.214844 302.84375 103.621094 C 302.832031 104.03125 302.746094 104.425781 302.578125 104.800781 C 302.410156 105.175781 302.179688 105.507812 301.882812 105.789062 C 301.585938 106.070312 301.246094 106.285156 300.867188 106.433594 C 300.484375 106.582031 300.089844 106.648438 299.679688 106.636719 C 299.269531 106.628906 298.878906 106.539062 298.503906 106.371094 C 298.132812 106.203125 297.804688 105.96875 297.523438 105.671875 C 297.242188 105.375 297.027344 105.03125 296.882812 104.648438 C 296.734375 104.265625 296.667969 103.867188 296.679688 103.457031 C 296.691406 103.046875 296.78125 102.65625 296.949219 102.28125 C 297.117188 101.90625 297.347656 101.582031 297.648438 101.300781 C 297.945312 101.023438 298.289062 100.8125 298.671875 100.671875 C 299.054688 100.53125 299.449219 100.472656 299.855469 100.492188 Z M 299.855469 100.492188 " clip-rule="nonzero"/></clipPath></defs><g clip-path="url(#501334a46a)"><g clip-path="url(#5d3b7a8d29)"><path fill="url(#f1781bb754)" d="M 96.675781 97.808594 L 96.675781 125.625 L 125.195312 125.625 L 125.195312 97.808594 Z M 96.675781 97.808594 " fill-rule="nonzero"/></g></g><g clip-path="url(#4bd58045c7)"><g clip-path="url(#1f4c22ce8f)"><path fill="url(#fa1e3bb85d)" d="M 255.992188 111.753906 L 255.992188 156.976562 L 303.410156 156.976562 L 303.410156 111.753906 Z M 255.992188 111.753906 " fill-rule="nonzero"/></g></g><g clip-path="url(#26c0ecaea5)"><g clip-path="url(#c78f7d6fcd)"><path fill="#9973e9" d="M 273.941406 97.867188 L 273.941406 109.445312 L 285.285156 109.445312 L 285.285156 97.867188 Z M 273.941406 97.867188 " fill-opacity="1" fill-rule="nonzero"/></g></g><g clip-path="url(#eb46465128)"><g clip-path="url(#d16f886d67)"><path fill="url(#8fda82192f)" d="M 225.28125 112.472656 L 225.28125 141.128906 L 252.980469 141.128906 L 252.980469 112.472656 Z M 225.28125 112.472656 " fill-rule="nonzero"/></g></g><g clip-path="url(#200642eff7)"><g clip-path="url(#160f3e5930)"><path fill="url(#16843b1876)" d="M 198.277344 145.496094 L 198.277344 156.964844 L 209.726562 156.964844 L 209.726562 145.496094 Z M 198.277344 145.496094 " fill-rule="nonzero"/></g></g><g clip-path="url(#00287347b3)"><g clip-path="url(#50eb49efea)"><path fill="url(#8bcc7ca465)" d="M 226.199219 145.476562 L 226.199219 156.976562 L 237.773438 156.976562 L 237.773438 145.476562 Z M 226.199219 145.476562 " fill-rule="nonzero"/></g></g><g clip-path="url(#0f46feec61)"><g clip-path="url(#2e34ed748a)"><path fill="url(#e02fd68a18)" d="M 240.441406 97.957031 L 240.441406 109.316406 L 251.800781 109.316406 L 251.800781 97.957031 Z M 240.441406 97.957031 " fill-rule="nonzero"/></g></g><g clip-path="url(#96b4c8bb27)"><g clip-path="url(#4c2cd662b0)"><path fill="url(#c7e501e5b3)" d="M 212.71875 130.242188 L 212.71875 141.664062 L 224.070312 141.664062 L 224.070312 130.242188 Z M 212.71875 130.242188 " fill-rule="nonzero"/></g></g><g clip-path="url(#24cac08077)"><g clip-path="url(#8d820ae043)"><path fill="url(#f949339329)" d="M 198.570312 114.777344 L 198.570312 124.371094 L 208.058594 124.371094 L 208.058594 114.777344 Z M 198.570312 114.777344 " fill-rule="nonzero"/></g></g><g clip-path="url(#b341ed817a)"><g clip-path="url(#5a112e347d)"><path fill="url(#324ddfec92)" d="M 184.15625 131.164062 L 184.15625 140.75 L 193.71875 140.75 L 193.71875 131.164062 Z M 184.15625 131.164062 " fill-rule="nonzero"/></g></g><g clip-path="url(#03834c667e)"><g clip-path="url(#dad8358abd)"><path fill="url(#103e2573fb)" d="M 185.507812 100.476562 L 185.507812 106.644531 L 191.675781 106.644531 L 191.675781 100.476562 Z M 185.507812 100.476562 " fill-rule="nonzero"/></g></g><g clip-path="url(#b103a5fe12)"><g clip-path="url(#eecabdc3be)"><path fill="#503dc6" d="M 72.285156 132.859375 L 72.285156 139.078125 L 78.453125 139.078125 L 78.453125 132.859375 Z M 72.285156 132.859375 " fill-opacity="1" fill-rule="nonzero"/></g></g><g clip-path="url(#5b4f57ce8f)"><g clip-path="url(#71122e911f)"><path fill="url(#6754399cd1)" d="M 139.007812 128.617188 L 139.007812 156.558594 L 167.3125 156.558594 L 167.3125 128.617188 Z M 139.007812 128.617188 " fill-rule="nonzero"/></g></g><g clip-path="url(#783476e81a)"><g clip-path="url(#e40d5cce94)"><path fill="#503dc6" d="M 93.8125 128.617188 L 93.8125 156.558594 L 122.113281 156.558594 L 122.113281 128.617188 Z M 93.8125 128.617188 " fill-opacity="1" fill-rule="nonzero"/></g></g><g clip-path="url(#2a05271322)"><g clip-path="url(#872279b724)"><path fill="url(#83d83699d1)" d="M 153 97.726562 L 153 125.628906 L 180.832031 125.628906 L 180.832031 97.726562 Z M 153 97.726562 " fill-rule="nonzero"/></g></g><g clip-path="url(#4dadc42cab)"><g clip-path="url(#055423148b)"><path fill="url(#b3a0b47a89)" d="M 124.167969 97.808594 L 124.167969 125.625 L 152.660156 125.625 L 152.660156 97.808594 Z M 124.167969 97.808594 " fill-rule="nonzero"/></g></g><g clip-path="url(#543a0b0822)"><g clip-path="url(#20d2fe1c0b)"><path fill="#503dc6" d="M 82.757812 114.074219 L 82.757812 125.5625 L 94.339844 125.5625 L 94.339844 114.074219 Z M 82.757812 114.074219 " fill-opacity="1" fill-rule="nonzero"/></g></g><g clip-path="url(#2eb653b38d)"><g clip-path="url(#40807b8cf5)"><path fill="url(#9bec68943a)" d="M 124.445312 130.226562 L 124.445312 141.667969 L 135.828125 141.667969 L 135.828125 130.226562 Z M 124.445312 130.226562 " fill-rule="nonzero"/></g></g><g clip-path="url(#a70e2496db)"><g clip-path="url(#2baaae626c)"><path fill="url(#ce76c4d463)" d="M 169.140625 146.417969 L 169.140625 155.921875 L 178.59375 155.921875 L 178.59375 146.417969 Z M 169.140625 146.417969 " fill-rule="nonzero"/></g></g><g clip-path="url(#117ae008e3)"><g clip-path="url(#8e35f9a0a7)"><path fill="#503dc6" d="M 84.65625 146.464844 L 84.65625 156 L 94.140625 156 L 94.140625 146.464844 Z M 84.65625 146.464844 " fill-opacity="1" fill-rule="nonzero"/></g></g><g clip-path="url(#b94d74ceda)"><g clip-path="url(#3fb36262da)"><path fill="#503dc6" d="M 72.292969 132.828125 L 72.292969 139.046875 L 78.453125 139.046875 L 78.453125 132.828125 Z M 72.292969 132.828125 " fill-opacity="1" fill-rule="nonzero"/></g></g><g clip-path="url(#8f6109d123)"><g clip-path="url(#65ce18077b)"><path fill="url(#53786037d6)" d="M 214.984375 100.460938 L 214.984375 106.679688 L 221.132812 106.679688 L 221.132812 100.460938 Z M 214.984375 100.460938 " fill-rule="nonzero"/></g></g><g clip-path="url(#946d134078)"><g clip-path="url(#2b561a5ec7)"><path fill="#503dc6" d="M 72.277344 100.476562 L 72.277344 106.679688 L 78.441406 106.679688 L 78.441406 100.476562 Z M 72.277344 100.476562 " fill-opacity="1" fill-rule="nonzero"/></g></g><g clip-path="url(#d19840428c)"><g clip-path="url(#c1edf70e13)"><path fill="#9973e9" d="M 296.667969 100.472656 L 296.667969 106.648438 L 302.855469 106.648438 L 302.855469 100.472656 Z M 296.667969 100.472656 " fill-opacity="1" fill-rule="nonzero"/></g></g><g fill="#503dc6" fill-opacity="1"><g transform="translate(37.003814, 198.406847)"><g><path d="M 11.257812 -24.097656 L 1.6875 -24.097656 L 1.6875 0 L 11.257812 0 C 19.210938 0 23.203125 -5.992188 23.203125 -12.015625 C 23.203125 -18.039062 19.210938 -24.097656 11.257812 -24.097656 Z M 11.257812 -5.613281 L 7.539062 -5.613281 L 7.539062 -18.523438 L 11.257812 -18.523438 C 15.320312 -18.523438 17.386719 -15.183594 17.386719 -12.015625 C 17.386719 -8.847656 15.320312 -5.613281 11.257812 -5.613281 Z M 11.257812 -5.613281 "/></g></g></g><g fill="#503dc6" fill-opacity="1"><g transform="translate(61.238876, 198.406847)"><g><path d="M 1.722656 -24.304688 L 1.722656 0 L 17.625 0 L 17.625 -5.679688 L 7.644531 -5.679688 L 7.644531 -9.535156 L 17.386719 -9.535156 L 17.386719 -15.25 L 7.644531 -15.25 L 7.644531 -18.625 L 17.59375 -18.625 L 17.59375 -24.304688 Z M 1.722656 -24.304688 "/></g></g></g><g fill="#503dc6" fill-opacity="1"><g transform="translate(80.447914, 198.406847)"><g><path d="M 0.585938 -24.097656 L 0.585938 -22.996094 L 9.847656 0.0703125 L 14.113281 0.0703125 L 23.410156 -23.238281 L 23.410156 -24.097656 L 17.417969 -24.097656 L 13.425781 -14.046875 L 12.015625 -9.398438 L 10.601562 -14.046875 L 6.609375 -24.097656 Z M 0.585938 -24.097656 "/></g></g></g><g fill="#503dc6" fill-opacity="1"><g transform="translate(103.960059, 198.406847)"><g/></g></g><g fill="#503dc6" fill-opacity="1"><g transform="translate(112.60069, 198.406847)"><g><path d="M 7.058594 -12.015625 C 7.058594 -16.59375 10.363281 -18.867188 13.667969 -18.867188 C 16.421875 -18.867188 19.210938 -17.28125 20 -14.082031 L 25.957031 -14.082031 C 25.199219 -20.277344 19.863281 -24.476562 13.667969 -24.476562 C 6.78125 -24.476562 1.203125 -19.105469 1.203125 -12.015625 C 1.203125 -4.921875 6.78125 0.34375 13.667969 0.34375 C 19.933594 0.34375 25.097656 -3.820312 25.992188 -10.121094 L 20.035156 -10.121094 C 19.277344 -6.851562 16.492188 -5.199219 13.667969 -5.199219 C 10.363281 -5.199219 7.058594 -7.46875 7.058594 -12.015625 Z M 7.058594 -12.015625 "/></g></g></g><g fill="#503dc6" fill-opacity="1"><g transform="translate(139.693015, 198.406847)"><g><path d="M 1.753906 -12.015625 C 1.753906 -4.921875 7.332031 0.34375 14.21875 0.34375 C 21.105469 0.34375 26.714844 -5.027344 26.714844 -12.015625 C 26.714844 -19.105469 21.105469 -24.476562 14.21875 -24.476562 C 7.332031 -24.476562 1.753906 -19.105469 1.753906 -12.015625 Z M 7.609375 -12.015625 C 7.609375 -16.59375 10.914062 -18.832031 14.21875 -18.832031 C 17.523438 -18.832031 20.792969 -16.558594 20.792969 -12.015625 C 20.792969 -7.503906 17.453125 -5.234375 14.148438 -5.234375 C 10.84375 -5.234375 7.609375 -7.46875 7.609375 -12.015625 Z M 7.609375 -12.015625 "/></g></g></g><g fill="#503dc6" fill-opacity="1"><g transform="translate(168.162332, 198.406847)"><g><path d="M 14.597656 -24.097656 L 14.597656 -12.050781 L 6.265625 -24.097656 L 1.722656 -24.097656 L 1.722656 0 L 7.574219 0 L 7.574219 -11.738281 L 15.800781 0 L 20.414062 0 L 20.414062 -24.097656 Z M 14.597656 -24.097656 "/></g></g></g><g fill="#503dc6" fill-opacity="1"><g transform="translate(190.400753, 198.406847)"><g><path d="M 17.316406 -18.695312 L 17.316406 -24.304688 L 1.722656 -24.304688 L 1.722656 0 L 7.574219 0 L 7.574219 -8.710938 L 16.765625 -8.710938 L 16.765625 -14.183594 L 7.574219 -14.183594 L 7.574219 -18.695312 Z M 17.316406 -18.695312 "/></g></g></g><g fill="#503dc6" fill-opacity="1"><g transform="translate(209.231125, 198.406847)"><g><path d="M 1.722656 -24.097656 L 1.722656 0 L 17.730469 0 L 17.730469 -5.679688 L 7.609375 -5.679688 L 7.609375 -24.097656 Z M 1.722656 -24.097656 "/></g></g></g><g fill="#503dc6" fill-opacity="1"><g transform="translate(228.19919, 198.406847)"><g><path d="M 11.085938 0.34375 C 15.699219 0.34375 20.3125 -2.339844 20.3125 -7.746094 L 20.3125 -24.097656 L 14.425781 -24.097656 L 14.425781 -7.78125 C 14.425781 -5.992188 12.703125 -5.09375 10.980469 -5.09375 C 9.296875 -5.09375 7.609375 -5.992188 7.609375 -7.78125 L 7.609375 -24.097656 L 1.722656 -24.097656 L 1.722656 -7.746094 C 1.722656 -2.273438 6.402344 0.34375 11.085938 0.34375 Z M 11.085938 0.34375 "/></g></g></g><g fill="#503dc6" fill-opacity="1"><g transform="translate(250.231077, 198.406847)"><g><path d="M 1.722656 -24.304688 L 1.722656 0 L 17.625 0 L 17.625 -5.679688 L 7.644531 -5.679688 L 7.644531 -9.535156 L 17.386719 -9.535156 L 17.386719 -15.25 L 7.644531 -15.25 L 7.644531 -18.625 L 17.59375 -18.625 L 17.59375 -24.304688 Z M 1.722656 -24.304688 "/></g></g></g><g fill="#503dc6" fill-opacity="1"><g transform="translate(269.440115, 198.406847)"><g><path d="M 14.597656 -24.097656 L 14.597656 -12.050781 L 6.265625 -24.097656 L 1.722656 -24.097656 L 1.722656 0 L 7.574219 0 L 7.574219 -11.738281 L 15.800781 0 L 20.414062 0 L 20.414062 -24.097656 Z M 14.597656 -24.097656 "/></g></g></g><g fill="#503dc6" fill-opacity="1"><g transform="translate(291.678523, 198.406847)"><g><path d="M 7.058594 -12.015625 C 7.058594 -16.59375 10.363281 -18.867188 13.667969 -18.867188 C 16.421875 -18.867188 19.210938 -17.28125 20 -14.082031 L 25.957031 -14.082031 C 25.199219 -20.277344 19.863281 -24.476562 13.667969 -24.476562 C 6.78125 -24.476562 1.203125 -19.105469 1.203125 -12.015625 C 1.203125 -4.921875 6.78125 0.34375 13.667969 0.34375 C 19.933594 0.34375 25.097656 -3.820312 25.992188 -10.121094 L 20.035156 -10.121094 C 19.277344 -6.851562 16.492188 -5.199219 13.667969 -5.199219 C 10.363281 -5.199219 7.058594 -7.46875 7.058594 -12.015625 Z M 7.058594 -12.015625 "/></g></g></g><g fill="#503dc6" fill-opacity="1"><g transform="translate(318.770848, 198.406847)"><g><path d="M 1.722656 -24.304688 L 1.722656 0 L 17.625 0 L 17.625 -5.679688 L 7.644531 -5.679688 L 7.644531 -9.535156 L 17.386719 -9.535156 L 17.386719 -15.25 L 7.644531 -15.25 L 7.644531 -18.625 L 17.59375 -18.625 L 17.59375 -24.304688 Z M 1.722656 -24.304688 "/></g></g></g></svg>